<?xml version="1.0" encoding="UTF-8" standalone="no"?>
<!DOCTYPE svg PUBLIC "-//W3C//DTD SVG 1.1//EN" "http://www.w3.org/Graphics/SVG/1.1/DTD/svg11.dtd">
<svg width="100%" height="100%" viewBox="0 0 300 300" version="1.1" xmlns="http://www.w3.org/2000/svg" xmlns:xlink="http://www.w3.org/1999/xlink" xml:space="preserve" xmlns:serif="http://www.serif.com/" style="fill-rule:evenodd;clip-rule:evenodd;stroke-linejoin:round;stroke-miterlimit:2;">
    <g transform="matrix(1.67277,0,0,1.67277,-105.63,-29.0517)">
        <path d="M156.6,185.2C158.2,183.3 160,181.3 161.2,180.1C162.5,178.7 164.2,177.9 166.1,177.7C166.1,177.7 163.3,176.3 160.3,179.3C159.5,180.1 157.7,182.1 155.9,184.2C155.2,183.5 154.6,182.7 153.9,182.1C154.6,181.3 155.2,180.7 155.8,180.1C157.1,178.7 158.8,177.8 160.7,177.7C160.7,177.7 157.9,176.3 154.9,179.3C154.5,179.7 153.9,180.3 153.2,181.1C152.5,180.3 151.9,179.7 151.5,179.3C148.5,176.3 145.7,177.7 145.7,177.7C147.6,177.8 149.3,178.7 150.6,180.1C151.2,180.7 151.8,181.3 152.5,182.1C151.9,182.7 151.2,183.5 150.5,184.2C148.7,182.2 146.9,180.1 146.1,179.3C143.1,176.3 140.3,177.7 140.3,177.7C142.2,177.8 143.9,178.7 145.2,180.1C146.4,181.3 148.1,183.3 149.8,185.2C148.2,186.9 146.8,188.5 145.9,189.4C144.7,190.6 143.2,191.3 141.6,191.5C141.6,191.5 144.1,193 147.5,189.4C148.6,188.3 149.6,187.2 150.6,186C151.3,186.8 151.9,187.6 152.5,188.2C152.1,188.5 151.8,188.9 151.5,189.3C150.3,190.5 148.8,191.2 147.2,191.4C147.2,191.4 149.7,192.9 153.1,189.3C153.2,189.2 153.3,189.1 153.4,189C153.5,189.2 153.6,189.2 153.7,189.3C157.1,192.8 159.6,191.4 159.6,191.4C158,191.2 156.4,190.4 155.3,189.3C155,188.9 154.7,188.5 154.3,188.2C154.9,187.6 155.5,186.8 156.2,186C157.5,187.5 158.6,188.8 159.2,189.4C162.7,192.9 165.2,191.5 165.2,191.5C163.6,191.3 162,190.5 160.9,189.4C159.6,188.5 158.2,186.8 156.6,185.2ZM153.1,187.3C152.5,186.7 151.8,185.9 151.1,185.2L153.1,183L155.1,185.2C154.3,185.9 153.7,186.7 153.1,187.3Z" style="fill:white;fill-rule:nonzero;"/>
    </g>
    <g transform="matrix(1.67277,0,0,1.67277,-105.63,-29.0517)">
        <path d="M90.1,81.7C90.5,82.9 91.7,83.7 92.9,83.6C93.3,83.6 93.7,83.5 94.1,83.4L94.3,83.6C94.5,83.9 94.7,84.1 95,84.3C95.1,84.4 95.2,84.4 95.3,84.4C95.5,84.4 95.6,84.3 95.7,84.2C95.9,84 95.8,83.6 95.5,83.5C95.3,83.4 95.1,83.2 95,83L95.1,83C95.6,82.7 96.1,82.3 96.4,81.7C96.7,81.1 96.8,80.3 96.6,79.6C96.5,79.1 96.1,78.8 95.6,78.7L95.5,78.8C95.5,78.6 95.4,78.4 95.3,78.2C94.8,76.6 93.4,75.4 92.4,75.5C92.2,75.3 92,75.3 91.8,75.3C91.6,75.4 91.4,75.6 91.4,75.8C91.1,76 90.9,76.2 90.7,76.5C90.2,77.5 90.2,78.7 90.5,79.7C90.5,79.9 90.6,80 90.7,80.2L90.6,80.2C90.2,80.7 90,81.2 90.1,81.7ZM95.7,80.2C95.7,80.5 95.7,80.9 95.5,81.2C95.2,81.8 94.6,82.2 93.9,82.4C93.6,82.5 93.3,82.6 93,82.6C92.3,82.7 91.6,82.3 91.3,81.6C91.6,81.7 91.9,81.7 92.2,81.7C92.7,81.7 93.2,81.6 93.7,81.5C94.4,81.2 95.1,80.8 95.7,80.2ZM91.6,77.2C91.7,77 91.8,76.9 91.9,76.9C92,76.9 92.1,76.8 92.1,76.7L92.3,76.7C92.7,76.5 93.9,77.4 94.3,78.7C94.5,79.1 94.5,79.5 94.5,80C94.2,80.3 93.8,80.5 93.3,80.6C92.9,80.7 92.5,80.7 92.1,80.8L92,80.8C91.8,80.5 91.6,80.1 91.4,79.7C91.1,78.8 91.2,77.9 91.6,77.2Z" style="fill:white;fill-rule:nonzero;"/>
    </g>
    <g transform="matrix(1.67277,0,0,1.67277,-105.63,-29.0517)">
        <path d="M101.9,90.1C102.4,90.1 102.8,89.8 103,89.4L103,89.3L103.6,89.3C104.7,89.3 105.8,88.8 106.5,88C106.8,87.8 107,87.5 107,87.1C107.1,87 107.3,86.9 107.3,86.6C107.3,86.4 107.1,86.1 106.9,86C106.7,84.9 105.1,84 103.3,84C103.1,84 103,84 102.8,84.1L102.8,83.9C102.6,83.5 102.1,83.2 101.6,83.2C100.8,83.3 100.1,83.7 99.6,84.3C99.3,84.7 99.1,85.2 98.9,85.7L99,85.7C98.8,85.6 98.6,85.5 98.4,85.4C98.2,85.2 97.9,85.2 97.7,85.5C97.5,85.7 97.6,86.1 97.9,86.2C98.2,86.4 98.4,86.6 98.8,86.7C99,86.7 99,86.8 99.1,86.8C99.1,88.7 100.2,90.1 101.9,90.1ZM103.5,85.2C104.8,85.1 106,86 106,86.4C106,86.6 106,86.6 106.1,86.7C106,86.8 106,86.9 106,86.9C106,87.1 105.9,87.2 105.8,87.4C105.2,88 104.4,88.3 103.6,88.3C103.2,88.3 102.8,88.2 102.3,88.1C102.1,87.7 102,87.2 102,86.8C102,86.3 102.1,85.9 102.2,85.5C102.6,85.3 103,85.2 103.5,85.2ZM100,86.8C100,86.2 100.1,85.6 100.5,85.1C100.8,84.8 101.1,84.6 101.5,84.5C101.1,85.2 101,86 101.1,86.8C101.1,87.6 101.3,88.4 101.7,89.1C100.6,88.9 99.9,87.9 100,86.8Z" style="fill:white;fill-rule:nonzero;"/>
    </g>
    <g transform="matrix(1.67277,0,0,1.67277,-105.63,-29.0517)">
        <path d="M96.4,114.6C96.5,114.3 96.5,113.9 96.4,113.6C96.5,113.4 96.5,113.2 96.4,113C96.3,112.8 96.1,112.7 95.9,112.7C95.1,111.9 93.2,111.9 91.8,112.8C91.6,112.9 91.6,113 91.4,113C91.4,113 91.3,113 91.3,112.9C91.1,112.8 90.8,112.8 90.6,112.7C90.4,112.7 90.2,112.7 90,112.9C89.3,113.3 88.8,114.1 88.7,114.9C88.6,115.4 88.7,115.9 88.9,116.3C88.8,116.4 88.8,116.4 88.7,116.4C88.5,116.4 88.2,116.5 88.1,116.4C87.8,116.4 87.5,116.6 87.5,116.9C87.4,117.1 87.6,117.4 87.9,117.4L88.3,117.4C88.5,117.4 88.7,117.4 88.9,117.3C89.1,117.3 89.1,117.3 89.2,117.2C89.8,118.2 90.8,118.9 92,119C92.5,119 93,118.8 93.4,118.6C93.8,118.4 94,117.9 93.9,117.4L93.9,117.2C94.1,117.2 94.3,117.1 94.4,117C95.4,116.6 96.1,115.7 96.4,114.6ZM92.4,113.7C93.6,113 95,113.1 95.2,113.5L95.4,113.7C95.4,113.8 95.4,113.9 95.5,113.9L95.5,114.4C95.3,115.2 94.7,115.9 94,116.3C93.6,116.5 93.2,116.7 92.8,116.8C92.4,116.5 92.1,116.2 91.9,115.8C91.6,115.4 91.5,115 91.4,114.5C91.7,114.1 92,113.9 92.4,113.7ZM90.2,116.8C89.9,116.3 89.8,115.7 89.8,115.1C89.8,114.7 90,114.3 90.4,114C90.4,114.8 90.7,115.6 91.1,116.3C91.5,117 92.1,117.5 92.8,118C91.7,118.3 90.6,117.8 90.2,116.8Z" style="fill:white;fill-rule:nonzero;"/>
    </g>
    <g transform="matrix(1.67277,0,0,1.67277,-105.63,-29.0517)">
        <path d="M78.7,115.7C78.8,115.8 78.9,115.9 79.1,116C79.1,116 79,116 79,116.1C78.9,116.6 79,117.1 79.3,117.4C79.8,117.8 80.4,118.1 81.1,118.1C82.1,118.1 83,117.6 83.7,116.9C83.8,116.9 83.9,117 83.9,117.1C84.2,117.2 84.5,117.3 84.9,117.3C85.2,117.3 85.4,117.1 85.5,116.8C85.5,116.5 85.3,116.3 85,116.2C84.8,116.2 84.6,116.1 84.4,116C84.3,116 84.3,115.9 84.2,115.9C84.5,115.4 84.7,114.8 84.7,114.2C84.7,113.5 84.4,112.8 83.8,112.3C83.6,112.1 83.3,111.9 82.9,111.9C82.7,111.9 82.5,112 82.5,112.1L82.4,112.1C82.2,112 82.2,111.9 82,111.8C80.8,110.7 79,110.2 78,110.8C77.8,110.8 77.6,110.8 77.5,111C77.3,111.2 77.3,111.4 77.3,111.6C77.1,111.9 77.1,112.3 77.1,112.6C77.4,113.9 77.9,114.9 78.7,115.7ZM83.7,114.4C83.7,115.1 83.4,115.7 82.9,116.2C82.4,116.7 81.8,117 81.1,117.1C80.8,117.1 80.5,117 80.2,116.8C81,116.6 81.7,116.1 82.2,115.5C82.8,114.9 83.2,114.3 83.4,113.5C83.7,113.8 83.8,114.1 83.7,114.4ZM78.4,112.3C78.4,112.2 78.5,112.1 78.5,112.1C78.5,112.1 78.7,112 78.7,111.9C79,111.6 80.4,111.7 81.4,112.7C81.7,113 82,113.3 82.2,113.7C82,114.1 81.8,114.5 81.5,114.8C81.2,115.1 80.8,115.4 80.4,115.7C80,115.5 79.7,115.2 79.4,115C78.8,114.4 78.4,113.6 78.3,112.8C78.3,112.6 78.4,112.4 78.4,112.3Z" style="fill:white;fill-rule:nonzero;"/>
    </g>
    <g transform="matrix(1.67277,0,0,1.67277,-105.63,-29.0517)">
        <path d="M100.7,143.1C100.7,142.8 100.5,142.4 100.2,142.2C100.2,142 100.1,141.8 100,141.6C99.8,141.5 99.6,141.5 99.4,141.6C98.3,141.3 96.7,142.2 95.8,143.7C95.7,143.8 95.6,144 95.6,144.1L95.4,144.1C95,144.1 94.6,144.4 94.4,144.7C93.7,145.9 94,147.4 95,148.2L94.9,148.3C94.7,148.5 94.6,148.6 94.3,148.6C94,148.7 93.9,149 94,149.3C94.1,149.5 94.3,149.6 94.5,149.6C94.6,149.6 94.7,149.5 94.7,149.5C95,149.3 95.3,149.2 95.6,148.9C95.7,148.8 95.8,148.8 95.8,148.8C96.4,149.1 97,149.3 97.7,149.3C98.7,149.3 99.6,148.8 100,148C100.3,147.6 100.3,147.1 100,146.7C99.9,146.7 99.9,146.7 99.9,146.6C100,146.5 100.1,146.3 100.1,146.2C100.8,145.3 101,144.1 100.7,143.1ZM96.7,144.2C97.4,143 98.7,142.5 99.1,142.6C99.2,142.7 99.3,142.7 99.3,142.8C99.4,142.8 99.5,142.9 99.5,142.9C99.6,142.9 99.7,143.1 99.7,143.3C99.9,144.1 99.7,145 99.3,145.7C99.1,146.1 98.8,146.4 98.5,146.7C98.1,146.6 97.6,146.4 97.2,146.2C96.8,146 96.5,145.7 96.2,145.3C96.4,145 96.5,144.6 96.7,144.2ZM96.3,148C95.3,147.6 94.8,146.5 95.1,145.5C95.5,146.2 96.1,146.8 96.8,147.1C97.5,147.5 98.3,147.8 99.1,147.7C98.4,148.5 97.1,148.6 96.3,148Z" style="fill:white;fill-rule:nonzero;"/>
    </g>
    <g transform="matrix(1.67277,0,0,1.67277,-105.63,-29.0517)">
        <path d="M92.3,150.2C92.2,150 92,149.8 91.8,149.9L91.7,149.9C91.5,150 91.3,150 91.1,150.1L90.9,150.1C90.9,149.6 90.8,149.1 90.6,148.7C90.3,147.9 89.7,147.4 88.9,147.2C88.4,147.1 87.9,147.2 87.6,147.6L87.5,147.7C87.3,147.7 87.2,147.6 87,147.6C85.4,147.2 83.6,147.7 83.1,148.8C82.9,148.8 82.7,149 82.6,149.2C82.6,149.4 82.6,149.7 82.8,149.8C82.8,150.2 82.9,150.5 83.1,150.8C83.7,151.7 84.6,152.4 85.7,152.6C85.9,152.7 86,152.7 86.2,152.8L86.2,152.9C86.3,153.4 86.7,153.8 87.1,153.9C87.3,154 87.6,154 87.8,154C89.3,153.9 90.5,152.8 90.7,151.4L91,151.4L92,151C92.3,150.9 92.4,150.6 92.3,150.3L92.3,150.2ZM84,150.2C83.9,150.1 83.8,149.9 83.8,149.7C83.9,149.6 83.9,149.5 83.8,149.4C83.9,149.3 84,149.2 84,149.2C84.1,148.8 85.4,148.3 86.8,148.6C87.2,148.7 87.6,148.9 88,149.2C88,149.6 88,150.1 87.8,150.5C87.7,151 87.5,151.4 87.2,151.8C86.8,151.8 86.4,151.8 85.9,151.7C85.2,151.3 84.5,150.8 84,150.2ZM89.7,150.9C89.6,151.9 88.8,152.6 87.8,152.7L87.6,152.7C88.2,152.2 88.6,151.5 88.8,150.7C89,149.9 89,149.1 88.8,148.3C89.2,148.5 89.5,148.8 89.7,149.2C89.9,149.7 89.9,150.3 89.7,150.9Z" style="fill:white;fill-rule:nonzero;"/>
    </g>
    <g transform="matrix(1.67277,0,0,1.67277,-105.63,-29.0517)">
        <path d="M116.9,172.6C118.8,172.6 120.2,171.4 120.2,169.8C120.3,169.3 120,168.8 119.5,168.6L119.4,168.6C119.4,168.5 119.5,168.2 119.5,168C119.5,166.9 119.1,165.8 118.4,165C118.2,164.8 117.9,164.6 117.5,164.5C117.3,164.4 117.2,164.1 116.9,164.1C116.7,164.1 116.5,164.3 116.4,164.4C115.4,164.6 114.3,166.2 114.3,167.9L114.3,168.5L114.2,168.5C113.7,168.7 113.5,169.1 113.5,169.6C113.5,170.4 113.8,171.2 114.5,171.7C114.9,172 115.3,172.2 115.8,172.3L115.4,173.1C115.2,173.3 115.3,173.6 115.5,173.8C115.6,173.9 115.7,173.9 115.8,174C116,174 116.1,173.9 116.2,173.8C116.4,173.6 116.6,173.3 116.7,172.9C116.9,172.7 116.9,172.6 116.9,172.6ZM116.7,165.6C116.9,165.6 116.9,165.6 117,165.5C117.1,165.6 117.2,165.6 117.2,165.6C117.4,165.6 117.5,165.7 117.6,165.8C118.2,166.4 118.5,167.2 118.5,168.1C118.5,168.5 118.4,169 118.3,169.4C117.9,169.5 117.4,169.6 117,169.6C116.5,169.5 116.1,169.4 115.7,169.4C115.6,169 115.6,168.5 115.5,168.1C115.5,166.6 116.3,165.5 116.7,165.6ZM114.7,170C115.4,170.4 116.2,170.6 117.1,170.6C117.9,170.6 118.6,170.4 119.3,170C119,171 118.1,171.7 117,171.6C116.4,171.6 115.8,171.4 115.3,171C114.9,170.8 114.7,170.4 114.7,170Z" style="fill:white;fill-rule:nonzero;"/>
    </g>
    <g transform="matrix(1.67277,0,0,1.67277,-105.63,-29.0517)">
        <path d="M114,175.9C113.9,176.1 113.7,176.3 113.5,176.4L113.4,176.5C112.9,175.5 111.9,174.9 110.8,174.8C110.6,174.8 110.4,174.9 110.2,175C109.5,175.2 109.3,175.6 109.3,175.9L109.3,176C109.1,176.1 109,176.1 108.8,176.1C107.2,176.5 105.9,177.8 106,178.9C105.8,179.1 105.8,179.3 105.8,179.5C105.9,179.7 106,179.8 106.2,179.9C106.4,180.2 106.6,180.5 107,180.6C107.6,180.9 108.3,181.1 109,181.1C109.4,181.1 109.8,181.1 110.2,180.9C110.4,180.9 110.5,180.8 110.7,180.7L110.7,180.8C110.9,181.1 111.3,181.3 111.6,181.3C111.7,181.3 111.9,181.3 112,181.2C112.7,181 113.2,180.6 113.6,180C114.1,179.2 114.2,178.2 113.9,177.2C114,177.2 114.1,177.1 114.1,177C114.4,176.8 114.6,176.6 114.8,176.3C115,176.1 115,175.8 114.8,175.7L114.7,175.6C114.5,175.6 114.2,175.7 114,175.9ZM109.8,180C109,180.2 108.2,180.1 107.4,179.8C107.2,179.6 107.1,179.6 107.1,179.5C107.1,179.4 107,179.3 106.9,179.3L106.9,179C106.7,178.6 107.7,177.5 108.9,177.1C109.3,177 109.7,177 110.2,177C110.5,177.3 110.7,177.7 110.7,178.2C110.8,178.6 110.9,179.1 110.9,179.5C110.6,179.7 110.2,179.9 109.8,180ZM112.6,179.6C112.4,179.9 112.1,180.2 111.8,180.3C112,179.5 112,178.7 111.8,177.9C111.6,177.1 111.2,176.4 110.6,175.8C111.7,175.8 112.6,176.6 112.7,177.6C113,178.3 113,179 112.6,179.6Z" style="fill:white;fill-rule:nonzero;"/>
    </g>
    <g transform="matrix(1.67277,0,0,1.67277,-105.63,-29.0517)">
        <path d="M144.6,186.2C144.9,186.2 145.2,186.2 145.3,186L145.3,185.8C145.3,185.6 145.4,185.3 142,184.7C142,183.5 142,181 140.5,180.1C140.2,179.9 139.9,179.8 139.6,179.8C138.9,179.9 138.3,180.3 138,181C137.9,181.1 137.8,181.2 137.8,181.3C137.6,180.9 137.5,180.4 137.5,180L137.4,179.4C137.2,178.5 137,176.5 135,175.9C134.8,175.8 134.5,175.8 134.3,175.8C132.9,175.8 132.5,177.1 132.3,177.9C132.2,178.2 132.1,178.7 131.9,178.8C131.7,178.1 131.6,177.4 131.7,176.7L131.7,176.2C131.7,173.6 130.4,172 128.3,172C128.1,172 127.8,172 127.6,172.1C127.1,172.1 126.5,172.4 126.2,172.8C125.5,173.6 125.6,174.8 125.8,175.8C125.8,176.2 125.9,176.7 125.9,176.9C125.8,177 125.8,177 125.7,177C125.3,177 125,176.6 124.5,175.8C123.9,174.4 122.5,173.5 121,173.5C119.5,173.6 118.1,174.4 117.4,175.7C116.5,177 116.4,178.6 117.1,180C117.9,181.3 119.3,182.1 120.8,182L121.6,182C122.6,182 123,182.3 123.2,182.7C122.9,182.9 122.6,183.1 122.3,183.3C121.4,183.8 120.3,184.2 120.1,185.3C120,185.9 120.1,186.6 120.5,187.1C121.3,188.3 122.6,189.1 124,189.1C125.2,189 126.3,188.5 127.2,187.7C127.4,187.6 127.4,187.4 127.6,187.3C128.2,186.7 128.9,186.1 129.3,186.1L129.5,186.1C129.6,186.3 129.3,186.7 129.3,186.9C128.9,187.6 128.9,188.4 129.1,189.2C129.4,189.8 129.9,190.2 130.6,190.4C131,190.6 131.5,190.6 131.9,190.6C133.1,190.5 134.3,189.9 135.1,189L135.7,188.4C136.2,187.8 136.4,187.5 136.7,187.5L136.7,187.8C136.8,188.4 137,189.9 138.8,189.7C140.2,189.6 141.3,188.3 142.1,186C142.7,186.1 143.7,186.2 144.6,186.2ZM138.3,188.2L138,188.2C137.9,188.1 137.9,187.8 137.8,187.6C137.7,187 137.7,186.2 136.8,186C136.7,185.9 136.5,185.9 136.3,185.9C135.4,186 134.6,186.5 134.1,187.2C134,187.4 133.9,187.5 133.7,187.7L133.6,187.8C133.1,188.5 132.4,188.9 131.6,189C131.3,189 131,188.9 130.7,188.9C130.4,188.7 130.1,188.7 130.1,188.5C130.1,188.2 130.2,187.8 130.3,187.5C130.9,186.7 130.8,185.6 130.1,184.9C129.8,184.7 129.4,184.5 129,184.5C128,184.5 127.1,185.4 126.2,186.2C126,186.3 126,186.4 125.8,186.5C125.2,187.1 124.4,187.4 123.6,187.4C122.7,187.4 121.8,186.9 121.3,186.1C121.2,185.9 121.1,185.7 121.1,185.5C121.2,185.2 122,184.8 122.6,184.5C123.5,184.1 124.8,183.5 124.3,182.2C123.8,181 122.5,180.3 121.2,180.4L121,180.4C120,180.6 118.9,180.1 118.3,179.2C117.9,178.3 118,177.2 118.5,176.4C119,175.5 119.9,175 120.9,174.9C121.8,175 122.6,175.5 123,176.4C123.4,177.5 124.4,178.2 125.5,178.4C125.8,178.4 126.1,178.3 126.4,178.2C127.4,177.7 127.2,176.6 127.1,175.5C127,174.9 126.9,173.9 127.2,173.6C127.2,173.6 127.3,173.4 127.6,173.4L128.1,173.4C128.6,173.4 129.9,173.4 130,176.1L130,176.4C129.9,177.6 129.9,178.9 130.6,179.6C130.9,179.9 131.4,180.1 131.9,180C133,179.9 133.3,178.9 133.6,178.1C134,176.9 134.1,176.9 134.5,177.1C135.5,177.3 135.7,178.3 135.8,179.3L135.9,179.9C136.1,181.1 136.2,182.3 137.6,182.6L137.8,182.6C138.5,182.6 138.8,182 139.1,181.6C139.2,181.4 139.3,181.1 139.4,181.1L139.5,181.1C139.8,181.3 140.4,182 140.4,184.2L139.2,184C133.5,183.1 126.4,180.2 124.1,179.3C123.3,179 123.3,179 123.2,179C123.1,179 123.1,179 123,179.1C123,179.1 123,179.2 122.9,179.2L122.9,179.3C123.1,179.8 132.3,184.2 138.8,185.3L140,185.5C139.6,187.6 138.8,188.1 138.3,188.2Z" style="fill:white;fill-rule:nonzero;"/>
    </g>
    <g transform="matrix(1.67277,0,0,1.67277,-105.63,-29.0517)">
        <path d="M99,81.5L99.2,81.7L99.4,81.7C99.5,81.7 99.6,81.7 100.4,80.9C101.4,81.5 102.6,81.9 103.8,82C104.3,82 104.7,81.9 105.1,81.6C105.5,81.4 105.8,81 105.9,80.6C106,80 105.9,79.4 105.5,78.9C105.4,78.8 105.4,78.7 105.3,78.7C105.7,78.7 106.1,78.8 106.5,78.9L107.1,79.1C107.7,79.3 108.3,79.5 109,79.5C109.9,79.5 110.7,79.2 111.2,78.5C111.6,78.1 111.8,77.6 111.8,77.1C111.7,76.3 111.3,75.6 110.6,75.2C110.4,75 110.1,74.7 110,74.6C109.9,74.5 110.1,74.5 110.2,74.5C110.8,74.6 111.5,74.9 112,75.2L112.3,75.4C114.9,76.7 117,76 117.7,73.7C117.9,73.2 117.9,72.6 117.7,72C117.1,71.2 116.3,70.6 115.3,70.4C115,70.2 114.6,70.1 114.3,70C114.4,69.7 114.5,69.2 115.9,69.2C117.3,69.3 118.7,68.5 119.5,67.3C120.1,65.9 120,64.3 119.2,63C118.5,61.7 117.2,60.8 115.7,60.8C114,60.9 112.6,61.9 112,63.5C111.4,64.8 111,65 110.6,65C110.5,64.7 110.5,64.3 110.5,64C110.6,63 110.4,62 109.9,61.2C109.5,60.8 109,60.6 108.5,60.7C108.3,60.7 108.2,60.8 108,60.8C106.7,61 105.5,61.7 104.8,62.8C104.2,63.9 104.1,65.2 104.5,66.4C104.6,66.6 104.6,66.8 104.7,67C105,68 105.3,68.9 104.9,69.1C104.7,68.9 104.4,68.7 104.3,68.5C103.9,67.8 103.1,67.4 102.3,67.3C101.7,67.3 101.1,67.6 100.6,68.1C99.4,69.3 99.1,71.2 99.9,72.7L100,72.8C100,73 100.1,73.2 100.2,73.4C100.5,74.2 100.6,74.5 100.5,74.7C100.4,74.7 100.3,74.7 100.2,74.6C99.9,74.5 99.5,74.4 99.2,74.4C98.5,74.4 97.8,74.9 97.6,75.6C97,77 97.8,78.6 99.6,80.4C98.9,81.2 99,81.3 99,81.5ZM98.9,76.1C99,75.9 99.1,75.9 99.1,75.9C99.3,75.9 99.5,76 99.7,76.1C100,76.2 100.3,76.2 100.6,76.3C101,76.3 101.4,76.1 101.6,75.8C102.4,74.8 102,73.8 101.6,72.9C101.5,72.7 101.5,72.6 101.4,72.4L101.3,72.2C101,71.3 100.7,70.2 101.7,69.3C102,69 102.2,68.9 102.2,68.9C102.4,68.9 102.8,69.3 103,69.6C103.5,70.1 103.9,70.7 104.7,70.7C104.9,70.7 105.1,70.6 105.3,70.5C107,69.8 106.4,67.9 106,66.6C105.9,66.4 105.9,66.2 105.8,66C105.5,65.2 105.5,64.4 106,63.6C106.5,62.9 107.3,62.4 108.1,62.3L108.3,62.3C108.5,62.3 108.6,62.3 108.6,62.4C108.8,62.6 108.8,63.5 108.8,64.1C108.8,65.1 108.8,66.5 110.1,66.6C111.8,66.8 112.6,65.5 113.3,64.2C113.7,62.9 115,62.2 116.3,62.6C117,62.8 117.5,63.3 117.8,63.9C118.3,64.7 118.4,65.8 118,66.7C117.5,67.4 116.7,67.9 115.8,67.8C113.3,67.8 112.8,69.1 112.7,70.1C112.6,71.1 113.8,71.6 114.7,71.9C115.3,72.1 116.1,72.4 116.3,72.7C116.4,72.8 116.4,72.9 116.3,73.3C115.9,74.5 115.2,74.6 114.7,74.6C114.1,74.6 113.5,74.4 112.9,74.2L112.7,74C111.9,73.5 111.1,73.2 110.2,73.1C109.5,73.1 108.9,73.5 108.6,74.1C108.1,75.1 109,75.9 109.5,76.5C109.7,76.7 110.2,77.1 110.2,77.4C110.2,77.5 110.1,77.6 110,77.7C109.7,78 109.3,78.2 108.9,78.2C108.4,78.2 107.9,78.1 107.5,78L106.8,77.7C106.3,77.5 105.8,77.4 105.2,77.3C104.6,77.3 104.1,77.6 103.8,78C103.3,78.7 103.7,79.4 104,79.9C104.1,80.1 104.2,80.2 104.3,80.4C104.2,80.4 104.2,80.4 104.2,80.5C104,80.6 103.8,80.6 103.6,80.6C102.8,80.5 102,80.3 101.2,79.9C101.8,79.3 102.5,78.4 103.3,77.3C106.7,73.4 110.4,69.8 114.4,66.6L114.5,66.6C115.4,65.9 115.4,65.9 115.4,65.8L115.4,65.6L115.2,65.4L115.1,65.4C114.9,65.4 114.9,65.4 114,66.1C112,67.5 105.7,71.9 102.2,76.3C101.2,77.5 100.5,78.3 100.1,79.1C98.7,77.4 98.7,76.5 98.9,76.1Z" style="fill:white;fill-rule:nonzero;"/>
    </g>
    <g transform="matrix(1.67277,0,0,1.67277,-105.63,-29.0517)">
        <path d="M106.9,173.7C108.3,173.6 109.6,172.9 110.5,171.9C110.8,172.2 111.2,172.4 111.7,172.5C111.9,172.5 111.9,172.3 112,172.3L112,172.2L112.1,172.1C112.1,171.9 112.2,171.9 111.3,171C111.8,170.1 113.3,167.7 112.3,166C112.1,165.5 111.5,165.1 111,165.1C110.6,165.1 110.1,165.3 109.7,165.5C109.6,165.6 109.5,165.6 109.5,165.7C109.6,165.3 109.7,164.9 109.8,164.5L110,163.9C110.3,163.1 111,161.2 109.5,159.8C109.2,159.4 108.6,159.1 108.1,159.1C107.3,159.2 106.6,159.6 106.1,160.2C105.9,160.4 105.7,160.6 105.5,160.8C105.3,160.5 106.1,159.2 106.3,158.8L106.5,158.5C107.2,157.4 107.3,156.1 107,154.9C106.7,154 105.9,153.3 105,153C104.7,152.9 104.3,152.9 104,152.9C102.6,152.9 102,154.3 101.6,155.4C101.5,155.7 101.3,156 101.1,156.3C100.8,156.2 100.5,156 100.4,154.8C100.6,153.7 100.2,152.5 99.4,151.7C98.3,150.4 96.2,150.3 94.4,151.2C93.1,151.8 92.2,153.2 92.1,154.7C92.2,156.4 93.2,157.8 94.7,158.5C96,159.1 96.2,159.5 96.1,159.9L94.2,159.9C93.4,159.8 92.6,160.1 92.1,160.6C91.7,161.1 91.6,161.7 91.7,162.3C92,164.7 93.6,166.2 95.8,166.2C96.3,166.2 96.7,166.1 97.1,166C97.3,166 97.5,165.9 97.7,165.9C98.2,165.7 98.7,165.6 99.3,165.6C99.7,165.6 99.8,165.7 99.8,165.7C99.8,165.7 99.5,166.1 99.2,166.3C98.6,166.7 98.1,167.3 98,168C98,168.7 98.2,169.3 98.6,169.8C99.3,170.6 100.3,171.1 101.4,171.1C102,171.1 102.6,171 103.2,170.8L103.4,170.7C103.6,170.6 103.8,170.6 103.9,170.5C104.2,170.3 104.6,170.2 104.9,170.2C105,170.2 105.1,170.2 105.1,170.3C105,170.4 105,170.5 104.9,170.6C104.7,171.2 104.2,172.6 105.8,173.2C106.3,173.6 106.6,173.7 106.9,173.7ZM104.9,169C104.4,169 103.8,169.1 103.3,169.3L102.8,169.5L102.7,169.5C102.3,169.7 101.8,169.8 101.4,169.8C100.8,169.8 100.2,169.6 99.8,169.1C99.6,168.9 99.5,168.7 99.5,168.5C99.5,168.3 99.9,167.9 100.2,167.7C100.7,167.2 101.7,166.5 101.2,165.4C100.9,164.6 100.2,164.1 99.3,164.1C98.6,164.2 98,164.3 97.3,164.5C97.1,164.5 96.9,164.6 96.7,164.7C96.4,164.8 96,164.8 95.7,164.8C94.3,164.8 93.3,163.9 93.1,162.2C93,162 93.1,161.9 93.2,161.7C93.2,161.6 93.4,161.5 94.2,161.5L95,161.5C95.2,161.6 95.5,161.6 95.7,161.6C96.9,161.6 97.5,161.2 97.6,160.4C97.9,158.6 96.5,157.7 95.3,157.2C94.4,156.8 93.7,155.9 93.6,154.8C93.6,153.9 94.2,153 95.1,152.7C96.4,152.1 97.6,152.1 98.3,152.9C98.8,153.4 99.1,154.2 98.9,154.9C98.9,156.8 99.7,157.8 101.1,158L101.2,158C102.2,158 102.6,156.9 103,156C103.2,155.3 103.6,154.4 104,154.4C104.1,154.4 104.3,154.4 104.4,154.5C104.9,154.7 105.3,155 105.5,155.5C105.7,156.3 105.6,157.2 105.1,157.9L104.9,158.2C104.3,159.1 103.7,160.3 103.9,161.3C104,161.7 104.4,162.1 104.8,162.3C105,162.4 105.2,162.5 105.4,162.5C106.1,162.4 106.7,162 107.1,161.5C107.3,161.2 107.7,160.8 108,160.8C108.1,160.8 108.2,160.9 108.3,161.1C109,161.8 108.8,162.7 108.5,163.5L108.3,164.1C107.9,165.1 107.5,166.2 108.5,167.1C108.7,167.3 109,167.4 109.3,167.4C109.7,167.4 110.1,167.2 110.4,167C110.5,166.9 110.7,166.8 110.9,166.8L111,167C111.2,167.2 111.3,168 110.1,170.1C109.5,169.5 108.8,168.8 107.7,167.9C103.8,164.2 100.3,160.2 97.2,155.9C96.7,155.3 96.7,155.3 96.6,155.3L96.5,155.3C96.4,155.4 96.4,155.4 96.3,155.5C96.2,156 101.8,164.5 106.7,168.8C107.5,169.6 108.3,170.3 109.2,171C108.5,171.6 107.7,172.1 106.8,172.2L106.4,172.2C106.3,172.2 106.2,172.1 106.2,172C106.3,171.8 106.3,171.6 106.4,171.4C106.6,170.9 106.9,170.1 106.3,169.5C106,169.2 105.5,169 104.9,169Z" style="fill:white;fill-rule:nonzero;"/>
    </g>
    <g transform="matrix(1.67277,0,0,1.67277,-105.63,-29.0517)">
        <path d="M84.7,140.5C84.9,140.5 85.2,140.6 85.4,140.6C86.2,140.8 86.4,140.8 86.6,141L86.4,141.2C85.5,141.7 85.2,142.8 85.7,143.6C85.7,143.7 85.8,143.8 85.9,143.9C86.6,144.7 87.7,145.2 88.7,145.1C89.4,145.1 90,145 90.7,144.9C91.3,146 91.5,146 91.6,146C91.7,146 91.8,146 91.8,145.9L92,145.8C92.1,145.7 92.2,145.6 91.8,144.5C92.8,143.9 95,142.5 95,140.7C95,140.3 94.8,139.8 94.5,139.5C94.1,139.1 93.5,138.9 92.9,139L92.6,139C92.7,138.8 92.8,138.6 93.5,138.1L94.1,137.7C94.8,137.1 96.3,135.9 95.8,133.9C95.6,133 94.8,132.4 93.9,132.4C93.5,132.4 93,132.5 92.6,132.6C92.3,132.7 92.1,132.7 91.8,132.8C91.8,132.8 91.7,132.8 91.7,132.7C91.7,132.4 92.8,131.7 93.3,131.4L93.6,131.2C94.8,130.6 95.6,129.5 95.9,128.3C96,127.3 95.7,126.3 95,125.6C94.6,125.1 94,124.7 93.3,124.7C92.4,124.9 91.5,125.3 90.9,126C90.6,126.2 90.3,126.5 90,126.6C89.8,126.4 89.5,126.1 90.2,124.9C91,123.8 91.1,122.3 90.4,121C89.6,119.7 88.2,118.9 86.6,118.9L86.4,118.9C84.9,118.8 83.6,119.6 82.9,120.9C82.2,122.3 82.4,124.1 83.4,125.3C84.2,126.4 84,127 83.8,127.4C83.6,127.3 83.2,127 82.9,126.8C82.2,126.3 81.4,126 80.6,125.9C79.7,125.9 79,126.5 78.7,127.3C78.2,128.5 78.2,129.8 78.8,131C79.4,132.1 80.5,132.9 81.7,133.2C81.9,133.3 82.1,133.3 82.3,133.3C83.4,133.6 84.2,133.9 84.2,134.3C83.9,134.4 83.7,134.5 83.4,134.5C82.6,134.5 81.9,134.8 81.4,135.4C81.1,136 81,136.7 81.2,137.3C81.6,139 83,140.2 84.7,140.3L84.7,140.5ZM82.7,137.1C82.5,136.6 82.6,136.4 82.7,136.4C82.8,136.2 83.3,136.2 83.6,136.1C84.3,135.9 85.6,135.8 85.6,134.6C85.8,132.8 83.9,132.3 82.6,131.9C82.4,131.9 82.3,131.8 82.1,131.8C81.2,131.6 80.5,131.1 80.1,130.3C79.7,129.5 79.7,128.6 80,127.9C80.2,127.4 80.4,127.4 80.5,127.4C81,127.5 81.5,127.8 81.9,128.1C82.5,128.5 83.1,128.8 83.8,128.9C84.2,128.9 84.5,128.7 84.8,128.4C86,126.7 84.8,125 84.5,124.5C83.8,123.7 83.6,122.6 84.1,121.7C84.6,120.9 85.4,120.5 86.3,120.5L86.5,120.5C87.5,120.5 88.5,121 89,121.8C89.4,122.6 89.3,123.5 88.8,124.2C88.4,124.8 87.3,126.8 89,128.1C89.2,128.2 89.5,128.3 89.7,128.3C90.4,128.2 91.1,127.9 91.6,127.3C92.1,126.9 92.7,126.3 93.1,126.3C93.2,126.3 93.3,126.3 93.6,126.6C94,127 94.2,127.5 94.1,128.1C93.9,128.9 93.3,129.6 92.5,129.9L92.2,130.1C91.3,130.7 90.1,131.4 89.9,132.3C89.8,132.8 89.9,133.3 90.3,133.6C90.6,134 91.1,134.3 91.6,134.2C92,134.2 92.4,134.1 92.8,134C93.1,133.9 93.4,133.9 93.7,133.8C93.9,133.8 94,133.8 94.2,134.2C94.4,135.1 93.7,135.8 93,136.5L92.5,136.8C91.6,137.5 90.8,138.3 91.2,139.6C91.5,140.5 92.4,140.5 92.9,140.5C93.1,140.5 93.3,140.5 93.4,140.6L93.4,140.7C93.4,141 93.1,141.8 91.3,143C91,142.2 90.7,141.2 90.2,139.9C88.5,134.9 87.5,128 87,125.1C86.8,123.5 86.8,123.5 86.5,123.5L86.3,123.6C86.1,123.9 86.5,133.8 88.8,140.4C89.3,141.7 89.7,142.7 90,143.5C89.5,143.6 89,143.6 88.5,143.6C87.9,143.7 87.3,143.5 86.9,143L86.7,142.8C86.7,142.8 87,142.5 87.1,142.4C87.5,142.1 88.2,141.5 87.9,140.7C87.5,139.5 86.5,139.3 85.4,139.1C85.2,139.1 85,139 84.8,139L84.7,138.9C83.9,138.9 82.9,138.1 82.7,137.1Z" style="fill:white;fill-rule:nonzero;"/>
    </g>
    <g transform="matrix(1.67277,0,0,1.67277,-105.63,-29.0517)">
        <path d="M83.4,104.7C83.7,104.9 83.8,105 84,105.2C84.7,105.7 84.9,105.9 84.9,106.2C84.8,106.2 84.7,106.2 84.7,106.3C84.2,106.4 82.7,106.6 82.9,108.3C83.1,109.7 84.3,110.7 86.8,111.5C86.7,112.4 86.9,112.6 87,112.7C87.1,112.8 87.2,112.9 87.2,112.9L87.3,112.9C87.5,112.9 87.6,112.9 87.9,111.8C89,111.8 91.6,111.6 92.6,110.1C92.8,109.7 92.9,109.3 92.8,108.8C92.6,108.3 92.2,107.8 91.7,107.6C91.6,107.5 91.5,107.5 91.5,107.4C91.6,107.2 91.9,107.2 92.7,107.1L93.2,106.9C94.1,106.7 96,106.3 96.5,104.4C97,102.5 95.3,102 94.3,101.7C94,101.6 93.8,101.6 93.5,101.5L93.5,101.4C94.1,101.2 94.8,101 95.5,101.1L95.8,101.1C97.1,101.2 98.3,100.6 99.1,99.7C99.7,98.9 100,97.9 99.7,96.9C99.6,95.8 98.6,95 97.5,95.1L97.4,95.1C96.9,95.1 96.4,95.2 95.9,95.3C95.6,95.4 95.3,95.4 95,95.5L94.9,95.5C94.8,95.2 94.8,94.7 95.9,94.1C97.2,93.5 98,92.2 98.1,90.8C98,89.3 97.2,87.9 95.8,87.1C94.2,86.1 92.1,86.3 90.8,87.7C90,88.6 89.6,89.9 89.8,91.1C89.9,92.4 89.7,92.9 89.2,93.1C89,92.9 88.8,92.5 88.7,92.2C88.1,91.2 87.5,90 86.3,90C85.8,90.1 85.3,90.3 85,90.6C83.7,91 83,92.2 83,93.6C83,94.9 83.5,96.1 84.5,97C84.6,97.2 84.7,97.3 84.9,97.5C85.7,98.2 86.3,98.8 86,99.2C85.7,99.2 85.4,99.1 85.1,99C84.7,98.8 84.2,98.7 83.8,98.7C83.1,98.7 82.3,98.9 81.8,100.4C81.3,101.9 82,103.7 83.4,104.7ZM83.3,100.7C83.5,100.1 83.7,100.1 83.8,100.1C84.1,100.1 84.4,100.2 84.7,100.3C85.1,100.5 85.5,100.6 86,100.6C86.5,100.6 87,100.4 87.3,100C88.4,98.6 87,97.2 86,96.3L85.5,95.8C84.9,95.2 84.5,94.4 84.5,93.6C84.6,92.7 85,92 85.8,91.5C85.9,91.4 86,91.3 86.2,91.3C86.6,91.3 87.1,92.2 87.3,92.7C87.8,93.6 88.2,94.4 89.2,94.4C89.4,94.4 89.5,94.3 89.7,94.3C91.5,93.5 91.4,91.6 91.3,90.7C91.2,89.9 91.4,89.1 91.9,88.4C92.8,87.6 94.1,87.5 95.1,88.2C96,88.7 96.6,89.6 96.6,90.6C96.6,91.5 96,92.2 95.3,92.6C93.2,93.8 93.4,95.3 93.7,96.1C94,96.6 94.5,97 95.1,96.9C95.5,96.9 95.9,96.8 96.4,96.7C96.8,96.6 97.2,96.6 97.6,96.5C98.2,96.5 98.3,96.7 98.4,97.1C98.5,97.7 98.4,98.2 98.1,98.7C97.5,99.3 96.7,99.6 95.9,99.6L95.7,99.6C94.5,99.6 93.2,99.7 92.5,100.4C92.2,100.7 92,101.2 92,101.7C92.2,102.8 93.3,103 94,103.3C95.2,103.6 95.2,103.7 95,104.2C94.8,105.1 93.9,105.4 93,105.5L92.4,105.7C91.3,105.9 90.2,106.1 90,107.4C89.8,108.3 90.5,108.7 91,109L91.5,109.2C91.4,109.2 91.4,109.3 91.4,109.3C91.2,109.6 90.5,110.2 88.3,110.3C88.5,109.5 88.7,108.4 89,106.9C89.9,101.8 92.4,95.4 93.5,92.6C94.1,91 94.1,91 94,90.9C94,90.8 93.9,90.8 93.8,90.8C93.2,90.8 88.8,100.3 87.6,106.6C87.4,107.7 87.2,108.9 87,110.1C85,109.5 84.5,108.7 84.5,108.3C84.5,107.9 84.5,108.1 84.5,108.1C84.7,108 84.9,107.9 85,107.9C85.6,107.7 86.3,107.6 86.5,106.7C86.7,105.4 85.9,104.8 85.2,104.1C85,104 84.9,103.9 84.7,103.8L84.6,103.7C83.4,103 83,101.8 83.3,100.7Z" style="fill:white;fill-rule:nonzero;"/>
    </g>
    <g transform="matrix(1.67277,0,0,1.67277,-105.63,-29.0517)">
        <path d="M211,83C210.8,83.3 210.6,83.4 210.4,83.6C210.2,83.8 210.1,84.1 210.3,84.3C210.4,84.5 210.5,84.5 210.7,84.5C210.9,84.5 210.9,84.5 211,84.4C211.3,84.2 211.5,84 211.7,83.7L211.9,83.5C212.3,83.6 212.7,83.6 213.1,83.7C214.4,83.8 215.5,83 215.9,81.8C216,81.3 215.9,80.8 215.5,80.5L215.4,80.5C215.5,80.4 215.5,80.2 215.6,80C216,78.9 215.9,77.8 215.4,76.8C215.2,76.5 215,76.3 214.7,76.1C214.7,75.9 214.5,75.7 214.3,75.6C214.1,75.5 213.8,75.6 213.7,75.8C212.7,75.7 211.3,76.9 210.8,78.5C210.7,78.6 210.7,78.8 210.6,79L210.5,79C210,79 209.6,79.4 209.5,79.9C209.2,80.7 209.4,81.6 209.8,82.3C210.2,82.5 210.6,82.8 211,83ZM211.8,78.7C212.2,77.4 213.4,76.6 213.8,76.7L214,76.7C214.1,76.7 214.2,76.8 214.2,76.9C214.2,77 214.4,77 214.5,77.2C214.9,78 214.9,78.8 214.7,79.6C214.6,80 214.4,80.4 214.1,80.7L214,80.7C213.6,80.7 213.2,80.6 212.8,80.5C212.4,80.4 212,80.2 211.6,79.9C211.6,79.5 211.6,79 211.8,78.7ZM210.4,80.2C210.9,80.8 211.7,81.2 212.5,81.5C213,81.7 213.5,81.7 214,81.7C214.3,81.7 214.6,81.7 214.9,81.6C214.6,82.2 213.9,82.6 213.2,82.5C212.9,82.5 212.6,82.5 212.3,82.3C211.7,82.2 211.2,81.8 210.9,81.3C210.5,81.1 210.3,80.7 210.4,80.2Z" style="fill:white;fill-rule:nonzero;"/>
    </g>
    <g transform="matrix(1.67277,0,0,1.67277,-105.63,-29.0517)">
        <path d="M207.1,86.9C207.2,86.9 207.3,86.8 207.4,86.8C207.7,86.7 208,86.5 208.3,86.3C208.5,86.2 208.6,85.8 208.5,85.6C208.3,85.4 208,85.3 207.8,85.5C207.6,85.6 207.4,85.7 207.2,85.8L207.1,85.8C206.9,84.4 205.7,83.4 204.3,83.4C203.8,83.4 203.4,83.7 203.2,84.1L203.2,84.3C203.1,84.2 202.9,84.2 202.7,84.2C201,84.2 199.4,85.1 199.1,86.2C198.9,86.3 198.7,86.4 198.7,86.7C198.7,86.9 198.8,87.2 199,87.3C199.1,87.6 199.3,87.9 199.6,88.2C200.4,89 201.4,89.4 202.5,89.5L203.1,89.5C203.1,89.5 203,89.5 203.1,89.6C203.3,90 203.7,90.3 204.2,90.3L204.3,90.3C205.9,90.1 207.1,88.7 207.1,86.9ZM202.6,88.3C201.8,88.3 201,88 200.4,87.4C200.3,87.3 200.2,87.1 200.2,86.9C200.2,86.8 200.2,86.7 200.1,86.7C200.2,86.6 200.2,86.5 200.2,86.4C200.2,86 201.4,85.2 202.7,85.2C203.1,85.2 203.6,85.3 204,85.4C204.2,85.8 204.3,86.3 204.2,86.7C204.2,87.2 204,87.6 203.9,88C203.4,88.2 203,88.3 202.6,88.3ZM204.5,89.1C204.9,88.4 205.2,87.6 205.1,86.8C205.2,86 205,85.2 204.6,84.5C205.6,84.7 206.3,85.7 206.1,86.8C206.2,87.9 205.5,88.8 204.5,89.1Z" style="fill:white;fill-rule:nonzero;"/>
    </g>
    <g transform="matrix(1.67277,0,0,1.67277,-105.63,-29.0517)">
        <path d="M212.7,118.7C213.1,119 213.6,119.1 214.1,119.1C215.3,119 216.3,118.3 216.9,117.3C217,117.4 217.1,117.4 217.2,117.4C217.4,117.5 217.6,117.5 217.8,117.5L218.2,117.5C218.5,117.5 218.6,117.2 218.6,117C218.6,116.7 218.4,116.5 218,116.5C217.8,116.6 217.6,116.5 217.4,116.5C217.3,116.5 217.3,116.5 217.2,116.4C217.4,115.9 217.4,115.5 217.4,115C217.3,114.2 216.9,113.4 216.1,113C215.9,112.9 215.7,112.8 215.5,112.8C215.3,112.8 215,112.9 214.8,113C214.8,113.1 214.7,113.1 214.7,113.1C214.5,113 214.5,112.9 214.3,112.9C212.9,112 211,112 210.3,112.8C210.1,112.8 209.8,112.9 209.7,113.1C209.6,113.3 209.6,113.5 209.7,113.7C209.6,114 209.6,114.4 209.7,114.7C210,115.8 210.6,116.7 211.6,117.2C211.7,117.3 211.9,117.4 212.1,117.4L212.1,117.6C212,118 212.2,118.4 212.7,118.7ZM216.4,115.1C216.4,115.7 216.3,116.3 216,116.8C215.6,117.8 214.5,118.2 213.5,117.9C214.2,117.5 214.7,116.9 215.1,116.2C215.5,115.5 215.8,114.7 215.8,113.9C216.1,114.2 216.3,114.6 216.4,115.1ZM210.7,114.4L210.7,113.9C210.8,113.8 210.8,113.8 210.8,113.7C210.9,113.6 211,113.5 211,113.5C211.2,113.2 212.6,113 213.8,113.7C214.2,113.9 214.5,114.2 214.8,114.5C214.8,115 214.6,115.4 214.3,115.8C214.1,116.2 213.8,116.5 213.4,116.8C213,116.7 212.6,116.6 212.2,116.3C211.5,115.9 210.9,115.2 210.7,114.4Z" style="fill:white;fill-rule:nonzero;"/>
    </g>
    <g transform="matrix(1.67277,0,0,1.67277,-105.63,-29.0517)">
        <path d="M223.5,112.3C223.4,112.2 223.3,112.1 223,112.1C222.7,112.1 222.4,112.2 222.1,112.5C221.5,113 221.2,113.7 221.2,114.4C221.2,115 221.4,115.6 221.7,116.1C221.6,116.1 221.6,116.2 221.5,116.2C221.3,116.3 221.1,116.4 220.9,116.4C220.6,116.5 220.4,116.7 220.4,117C220.5,117.3 220.7,117.5 221,117.5C221.4,117.4 221.7,117.3 222,117.3C222.1,117.2 222.2,117.1 222.2,117.1C222.9,117.8 223.8,118.2 224.8,118.3C225.5,118.3 226.1,118 226.6,117.6C226.9,117.2 227.1,116.7 226.9,116.3L227,116C227.1,115.9 227.3,115.8 227.4,115.7C228.2,114.9 228.7,113.9 228.8,112.9C228.8,112.6 228.7,112.2 228.6,111.9C228.6,111.7 228.6,111.4 228.4,111.3C228.2,111.2 228,111.1 227.8,111.1C226.9,110.5 225,110.9 223.9,112.1C223.8,112.1 223.7,112.2 223.5,112.3ZM223.1,116.3C222.6,115.8 222.3,115.2 222.3,114.5C222.3,114.2 222.4,113.8 222.6,113.6C222.8,114.4 223.2,115 223.8,115.6C224.3,116.2 225,116.6 225.8,116.9C225,117.3 223.8,117.1 223.1,116.3ZM227.3,111.9C227.4,112 227.5,112.1 227.5,112.1L227.6,112.3C227.7,112.4 227.8,112.6 227.8,112.8C227.7,113.6 227.3,114.4 226.7,115C226.4,115.2 226.1,115.5 225.7,115.7C225.3,115.4 224.9,115.1 224.6,114.8C224.3,114.5 224.1,114.1 223.9,113.7C224.1,113.3 224.4,113 224.7,112.7C225.6,111.8 227.1,111.6 227.3,111.9Z" style="fill:white;fill-rule:nonzero;"/>
    </g>
    <g transform="matrix(1.67277,0,0,1.67277,-105.63,-29.0517)">
        <path d="M211.8,144.7C211.6,144.3 211.2,144.1 210.8,144.1L210.6,144.1C210.5,144 210.5,143.8 210.4,143.7C209.5,142.3 208,141.3 206.8,141.6C206.6,141.5 206.4,141.5 206.2,141.6C206,141.7 205.9,141.9 205.9,142.2C205.6,142.4 205.4,142.7 205.3,143.1C205.1,144.2 205.3,145.3 205.9,146.2C206,146.3 206,146.5 206.1,146.6C206.1,146.7 206.1,146.7 206,146.7C205.7,147.1 205.7,147.6 206,148C206.5,148.9 207.4,149.4 208.4,149.3C209.1,149.3 209.7,149.1 210.3,148.8C210.4,148.8 210.4,148.9 210.5,148.9C210.8,149.1 211.1,149.3 211.4,149.5C211.5,149.5 211.6,149.6 211.6,149.6C211.8,149.6 212,149.5 212.1,149.3C212.2,149 212,148.7 211.8,148.6C211.6,148.5 211.4,148.4 211.2,148.3L211.1,148.2C212.2,147.4 212.5,145.9 211.8,144.7ZM206.3,143.3C206.4,143.1 206.5,142.9 206.5,142.9L206.7,142.8C206.9,142.8 206.9,142.7 207,142.7C207.3,142.5 208.7,143 209.4,144.2C209.6,144.6 209.7,145 209.8,145.4C209.5,145.8 209.2,146.1 208.8,146.3C208.4,146.5 208,146.7 207.5,146.8C207.2,146.5 206.9,146.2 206.7,145.8C206.4,145 206.2,144.1 206.3,143.3ZM209.8,148C209.4,148.3 208.9,148.4 208.4,148.4C207.9,148.4 207.4,148.2 207.1,147.8C207.9,147.8 208.7,147.6 209.4,147.2C210.1,146.8 210.7,146.2 211,145.6C211.3,146.4 210.8,147.5 209.8,148Z" style="fill:white;fill-rule:nonzero;"/>
    </g>
    <g transform="matrix(1.67277,0,0,1.67277,-105.63,-29.0517)">
        <path d="M223,148.7C222.5,147.7 220.7,147.1 219.1,147.5C219,147.6 218.8,147.6 218.6,147.6L218.5,147.5C218.2,147.1 217.7,147 217.2,147.1C216.4,147.3 215.7,147.8 215.5,148.6C215.3,149 215.2,149.5 215.2,150L215,150C214.8,150 214.6,149.9 214.4,149.8C214.2,149.7 213.9,149.7 213.8,149.9L213.8,150C213.7,150.3 213.8,150.6 214,150.7L214.9,150.9L215.2,150.9C215.4,152.3 216.7,153.4 218.1,153.5C218.3,153.5 218.6,153.5 218.8,153.4C219.3,153.3 219.6,152.9 219.7,152.4C219.9,152.3 220,152.3 220.2,152.2C221.3,151.9 222.2,151.3 222.8,150.4C223,150.1 223.1,149.8 223.1,149.4C223.2,149.2 223.3,149 223.3,148.8C223.3,148.8 223.2,148.7 223,148.7ZM216.4,150.9C216.2,150.3 216.3,149.7 216.5,149.1C216.7,148.7 217,148.4 217.4,148.2C217.2,149 217.2,149.8 217.4,150.6C217.6,151.4 218,152.1 218.6,152.6C217.5,152.8 216.7,152.1 216.4,150.9ZM222.1,150.2C221.6,150.9 220.9,151.3 220.1,151.5C219.7,151.6 219.3,151.6 218.8,151.6C218.5,151.2 218.3,150.8 218.2,150.3C218.1,149.9 218,149.5 218,149C218.4,148.8 218.8,148.6 219.2,148.4C220.5,148.1 221.9,148.6 222,149C222,149.1 222.1,149.2 222.2,149.2C222.1,149.2 222.1,149.3 222.2,149.4C222.3,149.8 222.2,150 222.1,150.2Z" style="fill:white;fill-rule:nonzero;"/>
    </g>
    <g transform="matrix(1.67277,0,0,1.67277,-105.63,-29.0517)">
        <path d="M190.3,172.6C190.2,172.5 190.2,172.5 190.2,172.4C191.5,172.2 192.5,171 192.5,169.6C192.5,169.1 192.2,168.7 191.8,168.5L191.7,168.5L191.7,168C191.7,166.4 190.7,164.8 189.7,164.5C189.6,164.3 189.4,164.2 189.1,164.2C188.9,164.3 188.7,164.4 188.5,164.6C188.2,164.7 187.9,164.8 187.6,165.1C186.9,165.9 186.5,167 186.5,168.1C186.5,168.3 186.5,168.5 186.6,168.7L186.5,168.7C186,168.9 185.8,169.3 185.8,169.8C185.8,171.4 187.2,172.6 189.1,172.6C189.2,172.7 189.2,172.7 189.2,172.9C189.3,173.2 189.4,173.5 189.7,173.8C189.8,173.9 189.9,174 190.1,174C190.2,174 190.3,173.9 190.4,173.8C190.6,173.6 190.7,173.3 190.5,173.1C190.5,172.9 190.4,172.8 190.3,172.6ZM188.5,165.8C188.6,165.7 188.7,165.6 188.9,165.6C189,165.6 189.1,165.6 189.1,165.5C189.2,165.6 189.2,165.6 189.3,165.6L189.4,165.6C189.8,165.6 190.7,166.7 190.7,168C190.7,168.5 190.6,168.9 190.6,169.3C190.2,169.4 189.7,169.5 189.2,169.5C188.8,169.5 188.3,169.4 187.9,169.3C187.7,168.9 187.7,168.5 187.7,168C187.6,167.2 187.9,166.4 188.5,165.8ZM186.9,169.9C187.6,170.3 188.4,170.5 189.2,170.5C190,170.5 190.8,170.3 191.5,169.9C191.4,170.8 190.5,171.5 189.2,171.5C188.1,171.6 187.1,171 186.9,169.9Z" style="fill:white;fill-rule:nonzero;"/>
    </g>
    <g transform="matrix(1.67277,0,0,1.67277,-105.63,-29.0517)">
        <path d="M197.4,176.1C197.2,176 197.1,176 196.9,176L196.9,175.9C196.9,175.6 196.7,175.1 196,175C195.8,174.9 195.5,174.9 195.3,174.8C194.2,174.8 193.2,175.5 192.8,176.5L192.7,176.4C192.5,176.3 192.3,176.1 192.2,175.9C192,175.7 191.7,175.7 191.5,175.8C191.3,175.9 191.2,176.2 191.3,176.4C191.3,176.4 191.3,176.5 191.4,176.5C191.6,176.8 191.8,177.1 192.1,177.2C192.2,177.3 192.3,177.4 192.3,177.4C192,178.3 192.2,179.3 192.6,180.2C192.9,180.8 193.5,181.2 194.2,181.4C194.3,181.5 194.5,181.5 194.6,181.5C195,181.5 195.3,181.3 195.5,181L195.5,180.9C195.6,181 195.8,181 196,181.1C196.4,181.2 196.8,181.3 197.2,181.3C197.9,181.3 198.6,181.2 199.2,180.8C199.5,180.7 199.8,180.4 200,180.1C200.2,180 200.3,179.9 200.4,179.7C200.5,179.5 200.4,179.2 200.2,179.1C200.3,177.9 198.9,176.5 197.4,176.1ZM194.3,180.3C194,180.2 193.7,179.9 193.5,179.6C193.2,179 193.1,178.3 193.4,177.6C193.7,176.5 194.4,175.8 195.3,175.8L195.5,175.8C194.9,176.4 194.5,177.1 194.3,177.9C194,178.7 194,179.5 194.3,180.3ZM199.2,179.3C199.1,179.3 199.1,179.4 199,179.5C198.9,179.6 198.9,179.7 198.7,179.8C197.9,180.2 197.1,180.3 196.3,180C195.9,179.9 195.5,179.7 195.2,179.4C195.2,178.9 195.2,178.5 195.4,178.1C195.5,177.7 195.6,177.2 196,176.9C196.4,176.8 196.8,176.9 197.3,177C198.6,177.4 199.5,178.5 199.4,178.9L199.4,179.3L199.2,179.3Z" style="fill:white;fill-rule:nonzero;"/>
    </g>
    <g transform="matrix(1.67277,0,0,1.67277,-105.63,-29.0517)">
        <path d="M185.3,173.5C183.8,173.5 182.5,174.4 181.8,175.8C181.3,176.6 181,177 180.6,177C180.5,177 180.4,177 180.4,176.9C180.4,176.7 180.5,176.2 180.5,175.8C180.7,174.8 180.8,173.6 180.1,172.8C179.7,172.4 179.2,172.1 178.7,172.1C176.2,171.7 174.6,173.3 174.6,176.2L174.6,176.6C174.7,177.3 174.6,178 174.4,178.7C174.2,178.6 174.1,178.1 174,177.8C173.8,177 173.4,175.7 172,175.7C171.8,175.7 171.5,175.7 171.3,175.8C169.3,176.4 169,178.3 168.9,179.3L168.8,179.9C168.8,180.4 168.6,180.8 168.5,181.2C168.4,181.1 168.4,181 168.3,180.9C168,180.2 167.4,179.8 166.7,179.7C166.4,179.7 166,179.8 165.8,180C164.3,180.9 164.3,183.5 164.3,184.6C160.9,185.2 160.9,185.5 161,185.7L161,185.9C161.1,186.1 161.4,186.1 161.7,186.1C162.6,186.1 163.6,186 164.5,185.9C165.3,188.2 166.4,189.5 167.8,189.6C167.9,189.7 168,189.7 168.1,189.7C169.6,189.7 169.8,188.4 169.9,187.7L169.9,187.4C170.2,187.4 170.5,187.7 170.9,188.3L171.5,188.9C172.3,189.9 173.4,190.5 174.6,190.5C175.1,190.5 175.5,190.4 175.9,190.3C176.6,190.2 177.1,189.7 177.4,189.1C177.6,188.3 177.5,187.5 177.2,186.8C177.1,186.6 176.9,186.2 177,186.1C177,186.1 177.1,186 177.2,186C177.7,186 178.4,186.6 178.9,187.2C179.1,187.3 179.1,187.4 179.3,187.6C180.2,188.4 181.3,188.9 182.5,188.9C183.9,188.9 185.3,188.1 186,186.9C186.4,186.4 186.5,185.7 186.4,185.1C186.2,184.1 185.1,183.6 184.2,183.1C183.9,183 183.6,182.8 183.3,182.5C183.4,182.1 183.9,181.8 184.9,181.8L185.3,181.8C187,182.1 188.6,181.3 189.4,179.8C190.1,178.4 190,176.7 189.1,175.5C188.1,174.3 186.8,173.5 185.3,173.5ZM187.9,179.3C187.4,180.1 186.5,180.5 185.5,180.5L184.7,180.5C183.4,180.4 182.1,181.1 181.6,182.3C181.1,183.6 182.4,184.2 183.3,184.6C183.9,184.9 184.7,185.3 184.8,185.6C184.8,185.8 184.7,186 184.6,186.2C184.1,187 183.2,187.4 182.3,187.5C181.5,187.5 180.7,187.1 180.1,186.6C179.9,186.5 179.9,186.4 179.7,186.3C178.8,185.5 178,184.6 176.9,184.6C176.5,184.6 176.1,184.7 175.8,185C175.1,185.7 175,186.8 175.6,187.6C175.8,187.9 175.8,188.3 175.8,188.6C175.8,188.8 175.6,188.8 175.2,189C174.9,189.1 174.7,189.1 174.4,189.1C173.6,189 172.9,188.6 172.4,187.9L172.3,187.8C172.1,187.7 172,187.5 171.9,187.3C171.4,186.5 170.6,186 169.7,186C169.5,186 169.4,186 169.2,186.1C168.5,186.3 168.1,187 168.2,187.7C168.1,187.9 168.1,188.2 168,188.3L167.7,188.3C167.2,188.2 166.4,187.7 165.7,185.9C166.1,185.8 166.5,185.7 167,185.7C173.5,184.6 182.7,180.2 182.9,179.7L182.9,179.6C182.9,179.6 182.8,179.6 182.8,179.5C182.7,179.4 182.7,179.4 182.6,179.4C182.5,179.4 182.5,179.4 181.7,179.7C179.4,180.6 172.3,183.4 166.6,184.4L165.4,184.6C165.4,182.4 166,181.7 166.3,181.5L166.4,181.5C166.5,181.6 166.6,181.8 166.7,182C167,182.5 167.4,183.2 168.3,183C169.6,182.7 169.8,181.5 170,180.3L170.1,179.7C170.3,178.7 170.5,177.7 171.4,177.5C171.9,177.3 172,177.3 172.3,178.5C172.5,179.3 172.9,180.3 174,180.4C174.5,180.5 174.9,180.3 175.3,180C176,179.3 176,177.9 175.9,176.9L175.9,176.5C176,173.8 177.3,173.8 177.8,173.8L178.4,173.8C178.7,173.8 178.8,174 178.8,174C179.1,174.3 179,175.3 178.9,175.9C178.7,176.9 178.7,178.1 179.6,178.6C179.9,178.7 180.2,178.7 180.5,178.8C181.6,178.6 182.6,177.9 183,176.8C183.4,175.9 184.2,175.4 185.1,175.3C186.1,175.4 187,175.9 187.5,176.8C188.3,177.2 188.4,178.3 187.9,179.3Z" style="fill:white;fill-rule:nonzero;"/>
    </g>
    <g transform="matrix(1.67277,0,0,1.67277,-105.63,-29.0517)">
        <path d="M211.9,160L210,160C209.9,159.6 210.2,159.1 211.5,158.5C212.9,157.8 213.9,156.4 213.9,154.8C213.8,153.3 213,152 211.6,151.3C209.8,150.4 207.7,150.5 206.6,151.8C205.8,152.6 205.5,153.7 205.6,154.8C205.5,156.1 205.1,156.3 204.9,156.4C204.7,156.1 204.6,155.8 204.4,155.5C204,154.4 203.4,153 202,153C201.7,153 201.3,153.1 201,153.1C200.1,153.4 199.3,154.1 199,155C198.6,156.2 198.8,157.6 199.5,158.7L199.7,158.9C199.9,159.3 200.7,160.5 200.5,160.9C200.3,160.7 200.1,160.6 199.9,160.3C199.4,159.7 198.7,159.3 197.9,159.2C197.3,159.2 196.8,159.5 196.5,159.9C195,161.3 195.7,163.2 196,164L196.2,164.6C196.4,165 196.5,165.4 196.5,165.9C196.4,165.8 196.3,165.8 196.3,165.7C195.9,165.5 195.5,165.3 195,165.3C194.4,165.3 193.9,165.6 193.7,166.2C192.7,167.9 194.3,170.3 194.7,171.2C193.8,172.1 193.9,172.1 193.9,172.3L194,172.4C194.1,172.5 194.1,172.5 194.1,172.6C194.1,172.7 194.3,172.7 194.3,172.7C194.7,172.6 195.1,172.4 195.5,172.1C196.4,173.1 197.7,173.8 199.1,173.9C199.4,173.9 199.8,173.8 200.1,173.7C201.7,173.1 201.1,171.7 201,171.1C200.9,170.9 200.8,170.9 200.8,170.8C200.9,170.7 201,170.7 201,170.7C201.3,170.8 201.7,170.9 202,171C202.2,171 202.4,171.1 202.6,171.2L202.7,171.3C203.3,171.5 203.9,171.6 204.5,171.6C205.6,171.6 206.6,171.2 207.3,170.3C207.7,169.8 208,169.2 207.9,168.5C207.7,167.8 207.3,167.1 206.6,166.8C206.4,166.6 206,166.3 206,166.2C206,166.1 206.1,166.1 206.5,166.1C207,166.1 207.6,166.2 208.1,166.4C208.3,166.4 208.5,166.5 208.7,166.5C209.2,166.7 209.6,166.7 210.1,166.7C212.3,166.7 213.9,165.2 214.2,162.8C214.3,162.2 214.2,161.6 213.8,161.1C213.3,160.3 212.6,160 211.9,160ZM212.9,162.2C212.6,164.2 211.3,165.2 209.3,164.7C209.1,164.6 208.9,164.6 208.7,164.5C208,164.3 207.4,164.2 206.7,164.1C205.9,164 205.1,164.5 204.8,165.3C204.3,166.5 205.3,167.2 205.8,167.7C206.1,167.9 206.5,168.3 206.5,168.5C206.5,168.7 206.3,168.9 206.2,169.1C205.8,169.6 205.3,169.9 204.6,169.9C204.1,169.9 203.7,169.8 203.3,169.6L203.1,169.6L202.6,169.4C202.1,169.2 201.6,169.1 201,169.1C200.5,169.1 200,169.3 199.6,169.7C199,170.3 199.3,171.1 199.5,171.6C199.5,171.8 199.6,172 199.7,172.2C199.6,172.3 199.5,172.3 199.5,172.3C198.9,172.6 197.9,172.2 196.7,171.2C197.4,170.6 198.3,169.9 199.2,169.1C204.1,164.7 209.7,156.2 209.6,155.7C209.6,155.6 209.5,155.5 209.5,155.5L209.4,155.5C209.2,155.5 209.2,155.5 208.8,156.1C205.7,160.4 202.2,164.4 198.3,168.1C197.3,169 196.5,169.7 195.9,170.3C194.7,168.3 194.9,167.5 195,167.2C195,167.1 195.1,167.1 195.1,167C195.2,167.1 195.4,167.2 195.6,167.2C195.9,167.4 196.3,167.6 196.7,167.6C197,167.6 197.2,167.5 197.5,167.3C198.4,166.4 198.1,165.3 197.7,164.3L197.5,163.7C197,162.9 197.1,161.9 197.7,161.2C197.9,161 197.9,161 198,161C198.1,161 198.6,161.4 198.9,161.7C199.3,162.2 200,162.6 200.6,162.7C200.8,162.7 201,162.6 201.2,162.5C201.6,162.3 201.9,161.9 202.1,161.5C202.3,160.6 201.7,159.4 201.1,158.4L200.9,158.2C200.5,157.5 200.3,156.6 200.5,155.8C200.7,155.3 201.2,154.9 201.7,154.8C201.8,154.7 201.9,154.7 202,154.7C202.4,154.7 202.8,155.6 203,156.3C203.4,157.2 203.8,158.3 204.8,158.3L204.9,158.3C206.3,158.1 207.1,157 207.1,155.2C207,154.5 207.2,153.7 207.7,153.2C208.3,152.5 209.6,152.4 210.9,153C211.8,153.4 212.3,154.2 212.4,155.1C212.3,156.1 211.7,157 210.8,157.5C209.6,158.1 208.2,158.9 208.5,160.7C208.6,161.5 209.2,161.9 210.4,161.9C210.6,161.9 210.9,161.9 211.1,161.8L211.9,161.8C212.6,161.8 212.8,162 212.8,162C212.8,161.9 212.9,162 212.9,162.2Z" style="fill:white;fill-rule:nonzero;"/>
    </g>
    <g transform="matrix(1.67277,0,0,1.67277,-105.63,-29.0517)">
        <path d="M225.5,125.9C224.7,126 223.9,126.3 223.2,126.8C223,127 222.5,127.3 222.3,127.4C222.1,127 221.9,126.5 222.7,125.3C223.7,124 223.9,122.3 223.2,120.9C222.5,119.6 221.1,118.8 219.7,118.9L219.5,118.9C218,118.9 216.5,119.7 215.7,121C215.1,122.2 215.2,123.7 215.9,124.9C216.5,126.1 216.4,126.4 216.1,126.6C215.8,126.4 215.5,126.2 215.2,126C214.5,125.3 213.7,124.9 212.8,124.7C212.2,124.7 211.6,125 211.2,125.6C210.5,126.3 210.1,127.3 210.3,128.3C210.6,129.6 211.4,130.6 212.6,131.2L212.9,131.3C213.4,131.6 214.5,132.3 214.5,132.6C214.5,132.6 214.5,132.7 214.4,132.7C214.1,132.7 213.9,132.6 213.6,132.6C213.2,132.4 212.7,132.4 212.3,132.4C211.4,132.4 210.6,133 210.5,133.9C209.9,135.9 211.5,137.1 212.2,137.7L212.6,138.1C213.3,138.7 213.5,138.9 213.5,139L213.2,139C212.6,138.9 212,139.1 211.6,139.5C211.3,139.8 211.2,140.3 211.2,140.7C211.3,142.5 213.5,143.8 214.4,144.5C214.1,145.6 214.2,145.8 214.2,145.8L214.4,146L214.6,146C214.7,146 214.9,146 215.4,144.9C216.1,145 216.8,145.1 217.5,145.1C218.6,145.2 219.6,144.7 220.3,143.9C220.9,143.1 220.8,142 220,141.4C219.9,141.3 219.8,141.3 219.7,141.2L219.5,141C219.7,140.9 219.9,140.8 220.7,140.6C220.9,140.6 221.2,140.5 221.4,140.5L221.5,140.4C223.2,140.3 224.6,139.1 225,137.4C225.2,136.8 225.1,136.1 224.8,135.5C224.3,134.9 223.6,134.6 222.8,134.6C222.5,134.5 222.3,134.5 222,134.4C222,133.9 222.8,133.7 223.9,133.4C224.1,133.4 224.3,133.3 224.5,133.3C225.7,133 226.8,132.2 227.4,131.1C227.9,129.9 228,128.5 227.5,127.3C227.1,126.4 226.3,125.9 225.5,125.9ZM225.9,130.3C225.5,131.1 224.8,131.6 223.9,131.8C223.8,131.8 223.6,131.9 223.4,131.9C222.1,132.3 220.3,132.8 220.4,134.6C220.5,135.8 221.7,135.9 222.4,136.1C222.7,136.2 223.3,136.2 223.4,136.4C223.5,136.6 223.5,136.9 223.4,137.1C223.2,138.2 222.2,138.9 221.1,138.9L221,139C220.8,139 220.5,139.1 220.4,139.1C219.4,139.3 218.4,139.5 218,140.7C217.7,141.6 218.4,142.1 218.8,142.4C218.9,142.5 219.2,142.7 219.2,142.8C219.2,142.9 219.2,142.9 219.1,143C218.7,143.4 218.1,143.6 217.5,143.6C217,143.6 216.5,143.5 216,143.5C216.3,142.7 216.7,141.7 217.2,140.4C219.5,133.9 220,123.9 219.7,123.6L219.5,123.5C219.3,123.5 219.3,123.5 219,125.1C218.5,128 217.6,134.9 215.8,139.9C215.3,141.2 215,142.2 214.7,143C212.9,141.8 212.6,141 212.6,140.7L212.6,140.6C212.7,140.5 212.9,140.5 213.1,140.5C213.7,140.5 214.5,140.5 214.8,139.6C215.2,138.3 214.3,137.6 213.5,136.8L213,136.5C212.3,135.8 211.6,135.2 211.8,134.2C212,133.8 212,133.8 212.2,133.8C212.5,133.8 212.8,133.9 213.1,134C213.5,134.1 213.9,134.2 214.3,134.2C214.8,134.3 215.3,134 215.6,133.6C215.9,133.2 216,132.8 215.9,132.3C215.7,131.3 214.6,130.6 213.6,130.1L213.3,129.9C212.5,129.6 211.9,128.9 211.7,128.1C211.7,127.5 211.9,127 212.3,126.6C212.5,126.3 212.6,126.3 212.7,126.3C213.1,126.3 213.7,126.9 214.2,127.3C214.7,127.9 215.4,128.2 216.1,128.3C216.3,128.3 216.6,128.2 216.8,128.1C218.5,126.8 217.4,124.9 217,124.2C216.5,123.5 216.5,122.6 216.9,121.8C217.4,120.9 218.4,120.4 219.4,120.5L219.6,120.5C220.5,120.5 221.3,120.9 221.8,121.7C222.3,122.6 222.1,123.8 221.4,124.5C221.1,125.1 219.9,126.7 221.1,128.4C221.3,128.7 221.7,128.9 222.1,128.9C222.8,128.8 223.4,128.5 224,128.1C224.4,127.8 224.9,127.5 225.4,127.4C225.5,127.4 225.6,127.4 225.9,127.9C226.3,128.7 226.2,129.5 225.9,130.3Z" style="fill:white;fill-rule:nonzero;"/>
    </g>
    <g transform="matrix(1.67277,0,0,1.67277,-105.63,-29.0517)">
        <path d="M215.5,87.4C214.2,86 212,85.8 210.4,86.8C209.1,87.6 208.2,89 208.1,90.6C208.2,92 209,93.3 210.2,93.9C211.4,94.5 211.3,95 211.2,95.3L211.1,95.3C210.8,95.3 210.5,95.2 210.2,95.1C209.7,95 209.2,95 208.7,94.9C207.6,94.7 206.6,95.5 206.4,96.6L206.4,96.7C206.2,97.7 206.4,98.7 207,99.5C207.9,100.4 209.1,101 210.4,100.9L210.7,100.9C211.4,100.9 212.1,101 212.7,101.2L212.7,101.3C212.5,101.4 212.2,101.4 212,101.5C211.1,101.7 209.4,102.2 209.9,104.2C210.4,106.2 212.3,106.6 213.2,106.7L213.8,106.9C214.6,107 214.9,107.1 215,107.2C214.9,107.3 214.8,107.3 214.8,107.4C214.3,107.6 213.9,108 213.7,108.6C213.6,109 213.6,109.5 213.8,109.9C214.8,111.5 217.4,111.6 218.5,111.6C218.7,112.7 218.9,112.7 219.1,112.7L219.2,112.7C219.3,112.7 219.4,112.6 219.4,112.5C219.4,112.4 219.6,112.3 219.6,111.3C222,110.6 223.3,109.6 223.5,108.1C223.7,106.4 222.2,106.1 221.7,106.1C221.6,106 221.5,106 221.5,106C221.5,105.8 221.7,105.5 222.4,105C222.5,104.8 222.7,104.7 222.9,104.6L223,104.5C224.4,103.5 225,101.7 224.6,100.1C224.1,98.7 223.3,98.4 222.6,98.4C222.1,98.4 221.7,98.5 221.3,98.7C221,98.8 220.7,98.8 220.4,98.9C220.2,98.6 220.8,98 221.6,97.2C221.8,97.1 221.9,96.9 222,96.7C223,95.8 223.5,94.6 223.5,93.3C223.4,92 222.8,90.8 221.7,90.1C221.3,89.7 220.9,89.5 220.4,89.5C219.1,89.5 218.5,90.8 218,91.7C217.8,92 217.7,92.3 217.4,92.6C216.9,92.4 216.8,92 216.8,90.6C216.7,89.6 216.3,88.3 215.5,87.4ZM216.6,94.3C216.7,94.4 216.9,94.4 217.1,94.5C218,94.5 218.5,93.6 219,92.8C219.2,92.2 219.7,91.4 220.1,91.4C220.3,91.4 220.4,91.5 220.5,91.6C221.2,92.1 221.7,92.9 221.8,93.7C221.8,94.6 221.4,95.4 220.8,96C220.6,96.1 220.5,96.2 220.3,96.4C219.4,97.4 217.9,98.7 219,100.1C219.3,100.5 219.8,100.7 220.3,100.7C220.7,100.7 221.2,100.6 221.6,100.4C221.9,100.3 222.2,100.2 222.5,100.2C222.6,100.2 222.8,100.2 223,100.8C223.3,101.9 222.9,103 221.9,103.6L221.8,103.7C221.6,103.8 221.5,103.9 221.3,104C220.5,104.7 219.7,105.3 220,106.6C220.2,107.5 220.9,107.6 221.5,107.8C221.7,107.8 221.9,107.9 222.1,108L222.1,108.2C222.1,108.6 221.6,109.4 219.6,110C219.5,108.8 219.3,107.7 219,106.5C217.9,100.2 213.5,90.7 212.9,90.7C212.8,90.7 212.8,90.7 212.7,90.8C212.5,91 212.5,91 213.2,92.5C214.3,95.3 216.8,101.6 217.7,106.8C218,108.3 218.2,109.4 218.4,110.2C216.2,110.1 215.6,109.6 215.3,109.2C215.3,109.2 215.3,109.1 215.2,109.1L215.7,108.9C216.2,108.6 216.9,108.2 216.7,107.3C216.5,106 215.4,105.7 214.3,105.6L213.7,105.4C212.8,105.2 211.9,105 211.7,104C211.5,103.6 211.5,103.5 212.7,103.2C213.4,103 214.5,102.7 214.7,101.5C214.7,101.1 214.5,100.6 214.2,100.3C213.6,99.6 212.2,99.5 211.1,99.5L210.9,99.5C210.1,99.5 209.3,99.2 208.7,98.6C208.4,98.1 208.3,97.6 208.4,97C208.5,96.6 208.6,96.4 209.2,96.4C209.6,96.4 210,96.5 210.4,96.6C210.8,96.7 211.2,96.7 211.7,96.8C212.3,96.9 212.9,96.6 213.1,96C213.4,95.2 213.7,93.7 211.5,92.5C210.7,92.1 210.2,91.4 210.2,90.5C210.2,89.5 210.8,88.6 211.7,88.1C212.7,87.4 214,87.5 214.8,88.3C215.3,89 215.5,89.8 215.4,90.7C214.9,91.7 214.8,93.6 216.6,94.3Z" style="fill:white;fill-rule:nonzero;"/>
    </g>
    <g transform="matrix(1.67277,0,0,1.67277,-105.63,-29.0517)">
        <path d="M186.9,63.2C186.1,64.5 186,66.1 186.7,67.5C187.5,68.7 188.8,69.4 190.3,69.4C191.6,69.4 191.8,69.9 191.9,70.2C191.6,70.3 191.2,70.4 190.9,70.6C189.9,70.8 189,71.3 188.5,72.2C188.3,72.7 188.3,73.3 188.5,73.9C189.2,76.2 191.3,76.9 193.9,75.6L194.2,75.4C194.8,75.1 195.4,74.8 196,74.7C196.1,74.7 196.2,74.7 196.2,74.8C196.2,74.9 195.8,75.2 195.6,75.4C194.9,75.8 194.5,76.5 194.4,77.3C194.4,77.8 194.6,78.3 195,78.7C195.5,79.4 196.4,79.7 197.2,79.7C197.8,79.7 198.5,79.5 199.1,79.3L199.7,79.1C200.1,78.9 200.5,78.8 200.9,78.9C200.8,79 200.8,79.1 200.8,79.1C200.4,79.6 200.3,80.2 200.4,80.8C200.5,81.2 200.8,81.6 201.2,81.8C201.6,82.1 202.1,82.2 202.5,82.2C203.7,82.1 204.9,81.7 205.9,81.1C206.6,81.9 206.8,81.9 206.8,81.9C206.9,81.9 207,81.9 207,81.8L207.1,81.6C207.1,81.4 207.2,81.3 206.6,80.4C208.4,78.6 209.1,77 208.6,75.6C208.4,74.9 207.7,74.4 207,74.4C206.7,74.4 206.3,74.5 206,74.6C205.9,74.7 205.8,74.7 205.7,74.7C205.6,74.5 205.7,74.2 206,73.4C206.1,73.2 206.1,73 206.2,72.8L206.3,72.7C207.1,71.2 206.7,69.3 205.5,68.1C205.1,67.6 204.5,67.3 203.9,67.3C203.1,67.4 202.3,67.8 201.9,68.5C201.7,68.7 201.4,69 201.3,69C201,68.8 201.2,68 201.5,67C201.5,66.8 201.6,66.6 201.7,66.5C202.1,65.3 202,64 201.4,62.9C200.6,61.8 199.5,61.1 198.2,60.9C197.5,60.7 196.8,60.9 196.3,61.4C195.8,62.2 195.5,63.2 195.7,64.2C195.7,64.5 195.7,64.9 195.6,65.2C195.1,65.2 194.7,65 194.2,63.8C193.7,62.2 192.2,61.1 190.5,61C188.9,61.1 187.6,61.9 186.9,63.2ZM188.2,64C188.7,62.8 190.2,62.3 191.4,62.8C192,63.1 192.5,63.6 192.7,64.3C193.3,65.5 194,66.7 195.5,66.7L195.8,66.7C197.1,66.6 197.1,65.2 197.1,64.2C197.1,63.6 197.1,62.7 197.3,62.5C197.3,62.4 197.4,62.4 197.5,62.4L197.8,62.4C198.7,62.5 199.4,63 199.9,63.7C200.3,64.5 200.4,65.4 200,66.2C200,66.4 199.9,66.6 199.9,66.7C199.5,68 198.9,69.9 200.6,70.6C200.8,70.7 201,70.8 201.2,70.8C202,70.8 202.5,70.2 202.9,69.7C203.1,69.4 203.5,69 203.7,69C203.8,69 203.9,69.1 204.3,69.3C205.3,70.3 205,71.4 204.7,72.3L204.6,72.5C204.5,72.7 204.5,72.8 204.4,73C204,73.9 203.6,74.9 204.4,75.9C204.6,76.2 205,76.4 205.4,76.4C205.7,76.4 206,76.3 206.3,76.2C206.5,76.1 206.7,76.1 206.9,76C206.9,76 207,76 207.1,76.2C207.3,76.6 207.3,77.5 205.7,79.1C205.2,78.4 204.5,77.5 203.6,76.3C200,71.9 193.8,67.5 191.8,66.1C190.9,65.4 190.9,65.4 190.7,65.4L190.6,65.4L190.5,65.6L190.5,65.7C190.5,65.8 190.5,65.8 191.4,66.5L191.5,66.5C195.5,69.7 199.2,73.3 202.6,77.2C203.5,78.3 204.2,79.2 204.7,79.8C204,80.2 203.2,80.4 202.3,80.5C202.1,80.5 201.9,80.5 201.7,80.4C201.7,80.3 201.7,80.3 201.6,80.3C201.7,80.1 201.8,80 201.9,79.8C202.1,79.3 202.6,78.6 202.1,77.9C201.8,77.5 201.2,77.2 200.7,77.2C200.2,77.3 199.6,77.4 199.1,77.6L198.5,77.8C198,77.9 197.6,78 197.1,78C196.7,78 196.3,77.9 196,77.5C195.8,77.3 195.8,77.3 195.8,77.2C195.8,77 196.3,76.6 196.5,76.3C197.1,75.7 197.9,75 197.4,73.9C197.1,73.3 196.5,72.9 195.8,72.9C194.9,73 194,73.3 193.3,73.8L193.1,74C192.5,74.3 191.9,74.4 191.3,74.5C190.8,74.5 190.1,74.3 189.7,73.2C189.6,72.8 189.6,72.7 189.7,72.6C189.9,72.3 190.6,72 191.3,71.8C192.2,71.5 193.3,71.1 193.3,70C193.3,68.9 192.7,67.7 190.2,67.7C189.3,67.8 188.5,67.3 188,66.6C187.7,65.8 187.7,64.8 188.2,64Z" style="fill:white;fill-rule:nonzero;"/>
    </g>
    <g transform="matrix(1.67277,0,0,1.67277,-105.63,-29.0517)">
        <path d="M116.3,136.9L119.7,127.9L117.8,127.9L116,132.7C115.8,133.3 115.4,134.2 115.2,135C115,134.1 114.7,133.3 114.5,132.6L112.8,127.9L110.7,127.9L114.1,136.9L116.3,136.9Z" style="fill:white;fill-rule:nonzero;"/>
    </g>
    <g transform="matrix(1.67277,0,0,1.67277,-105.63,-29.0517)">
        <path d="M127.4,135.4L124,135.4L124,133.1L127.2,133.1L127.2,131.6L124,131.6L124,129.4L127.4,129.4L127.4,127.9L122.1,127.9L122.1,136.9L127.4,136.9L127.4,135.4Z" style="fill:white;fill-rule:nonzero;"/>
    </g>
    <g transform="matrix(1.67277,0,0,1.67277,-105.63,-29.0517)">
        <path d="M134.1,136.9L134.1,129.6L136.6,129.6L136.6,127.9L129.7,127.9L129.7,129.6L132.2,129.6L132.2,136.9L134.1,136.9Z" style="fill:white;fill-rule:nonzero;"/>
    </g>
    <g transform="matrix(1.67277,0,0,1.67277,-105.63,-29.0517)">
        <path d="M144.5,129.4L144.5,127.9L139.3,127.9L139.3,136.9L144.5,136.9L144.5,135.4L141.1,135.4L141.1,133.1L144.4,133.1L144.4,131.6L141.1,131.6L141.1,129.4L144.5,129.4Z" style="fill:white;fill-rule:nonzero;"/>
    </g>
    <g transform="matrix(1.67277,0,0,1.67277,-105.63,-29.0517)">
        <path d="M153.5,132.7L150.5,127.9L148,127.9L148,136.9L149.8,136.9L149.8,132.2C149.8,131.6 149.8,130.9 149.7,130.3L149.8,130.3C150.1,130.9 150.3,131.5 150.7,132L153.8,136.8L156.3,136.8L156.3,127.8L154.5,127.8L154.5,131.8C154.5,132.6 154.5,133.5 154.6,134.3C154.2,133.9 153.8,133.3 153.5,132.7Z" style="fill:white;fill-rule:nonzero;"/>
    </g>
    <g transform="matrix(1.67277,0,0,1.67277,-105.63,-29.0517)">
        <path d="M161.8,135.6C161.1,135.6 160.4,135.5 159.8,135.2L159.7,136.9C160.3,137 161,137.1 161.6,137.1C163.9,137.1 165.5,135.9 165.5,134.1C165.5,131.3 161.5,132 161.5,130.5C161.5,129.8 162,129.3 163.2,129.3C163.8,129.3 164.3,129.4 164.9,129.6L165,127.9C164.5,127.8 163.9,127.8 163.3,127.7C160.9,127.7 159.6,128.9 159.6,130.5C159.6,133.4 163.6,132.6 163.6,134.2C163.5,135.2 162.7,135.6 161.8,135.6Z" style="fill:white;fill-rule:nonzero;"/>
    </g>
    <g transform="matrix(1.67277,0,0,1.67277,-105.63,-29.0517)">
        <path d="M168.7,127.9L168.7,136.9L170.6,136.9L170.6,132.7L173.9,136.9L176.4,136.9L172.5,132.3L176.2,127.9L173.9,127.9L170.6,132L170.6,127.9L168.7,127.9Z" style="fill:white;fill-rule:nonzero;"/>
    </g>
    <g transform="matrix(1.67277,0,0,1.67277,-105.63,-29.0517)">
        <path d="M180.4,135.2L184.2,135.2L184.8,136.9L186.8,136.9L183.4,127.9L181.2,127.9L177.8,136.9L179.7,136.9L180.4,135.2ZM181.8,131.3C181.9,130.8 182.1,130.4 182.3,129.9C182.4,130.4 182.6,130.8 182.8,131.3L183.7,133.8L180.9,133.8L181.8,131.3Z" style="fill:white;fill-rule:nonzero;"/>
    </g>
    <g transform="matrix(1.67277,0,0,1.67277,-105.63,-29.0517)">
        <path d="M192.5,127.9L189.6,127.9L189.6,136.9L191.5,136.9L191.5,134L192.3,134C194.6,134 196.2,132.7 196.2,130.8C196.1,129 194.8,127.9 192.5,127.9ZM192.2,132.5L191.4,132.5L191.4,129.4L192.3,129.4C193.5,129.4 194.1,130 194.1,130.9C194.1,132 193.4,132.5 192.2,132.5Z" style="fill:white;fill-rule:nonzero;"/>
    </g>
    <g transform="matrix(1.67277,0,0,1.67277,-105.63,-29.0517)">
        <path d="M116.3,152.1C118.8,152.2 120.9,150.3 121,147.8L121,147.3C121,144.3 119.2,142.7 116.6,142.7C114.1,142.6 112,144.6 111.9,147.1L111.9,147.4C112,150.2 113.4,152.1 116.3,152.1ZM116.5,144.4C118.1,144.4 119,145.4 119,147.5C119,149.6 117.9,150.4 116.4,150.4C114.7,150.4 114,149.1 114,147.4C114,145.4 115.1,144.4 116.5,144.4Z" style="fill:white;fill-rule:nonzero;"/>
    </g>
    <g transform="matrix(1.67277,0,0,1.67277,-105.63,-29.0517)">
        <path d="M127.6,152.1C128.4,152.1 129.3,151.9 130.1,151.7L129.9,150.1C129.3,150.4 128.7,150.5 128,150.5C126.6,150.6 125.3,149.6 125.2,148.1L125.2,147.6C125.2,145.8 126.2,144.5 128,144.5C128.6,144.5 129.3,144.6 129.9,144.8L130.1,143.1C129.5,142.9 128.8,142.9 128.2,142.9C125.7,142.7 123.5,144.5 123.3,147L123.3,147.7C123.2,150.3 124.7,152.1 127.6,152.1Z" style="fill:white;fill-rule:nonzero;"/>
    </g>
    <g transform="matrix(1.67277,0,0,1.67277,-105.63,-29.0517)">
        <path d="M140.9,151.9L140.9,142.9L139,142.9L139,146.5L134.8,146.5L134.8,142.9L133,142.9L133,151.9L134.8,151.9L134.8,148.1L139,148.1L139,151.9L140.9,151.9Z" style="fill:white;fill-rule:nonzero;"/>
    </g>
    <g transform="matrix(1.67277,0,0,1.67277,-105.63,-29.0517)">
        <path d="M150.8,147.7L154.1,151.9L156.6,151.9L152.7,147.2L156.4,142.9L154.1,142.9L150.8,146.9L150.8,142.9L148.9,142.9L148.9,151.9L150.8,151.9L150.8,147.7Z" style="fill:white;fill-rule:nonzero;"/>
    </g>
    <g transform="matrix(1.67277,0,0,1.67277,-105.63,-29.0517)">
        <path d="M162.2,152.1C164.7,152.2 166.8,150.2 166.9,147.7L166.9,147.4C166.9,144.4 165.1,142.8 162.4,142.8C159.9,142.8 157.8,144.8 157.7,147.3L157.7,147.5C157.8,150.2 159.3,152.1 162.2,152.1ZM162.4,144.4C163.9,144.4 164.9,145.4 164.9,147.5C164.9,149.6 163.7,150.4 162.3,150.4C160.6,150.4 159.9,149.1 159.9,147.4C159.8,145.4 161.1,144.4 162.4,144.4Z" style="fill:white;fill-rule:nonzero;"/>
    </g>
    <g transform="matrix(1.67277,0,0,1.67277,-105.63,-29.0517)">
        <path d="M172.3,147L175.5,151.9L177.9,151.9L177.9,142.9L176.1,142.9L176.1,146.9C176.1,148 176.2,148.9 176.2,149.4C175.9,148.8 175.6,148.2 175.2,147.7L172.2,142.9L169.7,142.9L169.7,151.9L171.5,151.9L171.5,145.4C171.7,145.9 172,146.5 172.3,147Z" style="fill:white;fill-rule:nonzero;"/>
    </g>
    <g transform="matrix(1.67277,0,0,1.67277,-105.63,-29.0517)">
        <path d="M183.3,150.6C182.6,150.6 181.9,150.5 181.3,150.2L181.2,151.9C181.8,152 182.5,152 183.1,152.1C185.4,152.1 187,150.9 187,149.1C187,146.3 183,147 183,145.4C183,144.8 183.6,144.3 184.6,144.3C185.2,144.3 185.8,144.4 186.3,144.6L186.4,142.9C185.8,142.8 185.2,142.8 184.7,142.8C182.3,142.8 181,144 181,145.6C181,148.5 184.9,147.7 184.9,149.3C185,150.2 184.2,150.6 183.3,150.6Z" style="fill:white;fill-rule:nonzero;"/>
    </g>
    <g transform="matrix(1.67277,0,0,1.67277,-105.63,-29.0517)">
        <path d="M193.2,151.9L193.2,144.6L195.7,144.6L195.7,142.9L188.8,142.9L188.8,144.6L191.3,144.6L191.3,151.9L193.2,151.9Z" style="fill:white;fill-rule:nonzero;"/>
    </g>
    <g transform="matrix(1.67277,0,0,1.67277,-105.63,-29.0517)">
        <path d="M123.6,117.5L123.4,117.4C118.7,116.8 118.6,115.9 118.5,112L118.5,105.2L126.4,113.8C129.4,117.1 131,118.9 135.4,118.9C136.3,118.9 137.2,118.8 138.2,118.7L138.4,118.7L138.4,117.6L138.2,117.6C135.6,117.5 134.2,116 131.3,113C130.9,112.6 130.5,112.2 130.1,111.7L122.4,103.2L125.5,100L126.2,99.3C128.8,96.5 131.7,93.5 135.7,93.1L135.9,93L135.9,92L125.5,92L125.5,93L125.7,93.1C126.7,93.2 127.3,93.4 127.4,93.8C127.7,94.6 126.8,96.2 124.6,98.6L118.5,105L118.5,98.6C118.7,94.7 118.7,93.7 122.4,93.2L122.6,93.2L122.6,92.1L110,92.1L110,93.2L110.2,93.2C114.5,93.8 114.6,94.7 114.7,98.6L114.7,112C114.6,115.9 114.5,116.9 110.2,117.4L110,117.5L110,118.5L123.6,118.5L123.6,117.5Z" style="fill:white;fill-rule:nonzero;"/>
    </g>
    <g transform="matrix(1.67277,0,0,1.67277,-105.63,-29.0517)">
        <path d="M158.1,117.5L157.9,117.4C153,116.8 152.8,115.7 152.8,111.1L152.8,93.7L154.8,93.7C159.3,93.7 161.2,95.1 162.4,99.5L162.5,99.7L163.5,99.5L162.9,92L138.8,92L138.3,99.5L139.3,99.7L139.3,99.5C140.6,95.2 142.4,93.7 146.9,93.7L148.9,93.7L148.9,111.1C148.9,115.8 148.7,116.9 143.8,117.4L143.6,117.5L143.6,118.5L158,118.5L158.1,117.5Z" style="fill:white;fill-rule:nonzero;"/>
    </g>
    <g transform="matrix(1.67277,0,0,1.67277,-105.63,-29.0517)">
        <path d="M197.1,93.2L197.3,93.2L197.3,92.1L183.6,92.1L183.6,93.2L183.8,93.2C188.6,93.9 188.6,94.5 188.6,98.6L188.6,103.9L174.8,103.9L174.8,98.6C174.8,94.5 174.8,93.9 179.7,93.2L179.9,93.2L179.9,92.1L166.2,92.1L166.2,93.2L166.4,93.2C170.7,93.8 170.8,94.7 170.9,98.6L170.9,112C170.8,115.9 170.7,116.9 166.4,117.4L166.2,117.5L166.2,118.5L179.9,118.5L179.9,117.5L179.7,117.4C174.8,116.7 174.8,116.1 174.8,112L174.8,106L188.6,106L188.6,112C188.6,116.1 188.6,116.7 183.8,117.4L183.6,117.5L183.6,118.5L197.2,118.5L197.2,117.5L197,117.4C192.6,116.8 192.6,115.9 192.4,112L192.4,98.6C192.6,94.7 192.6,93.7 197.1,93.2Z" style="fill:white;fill-rule:nonzero;"/>
    </g>
    <g transform="matrix(1.67277,0,0,1.67277,-105.63,-29.0517)">
        <path d="M121.4,57.5C120.9,58.4 121,59.5 121.6,60.4C122.2,61.3 123.3,61.8 124.4,61.6C125.6,63 127.6,64.8 129.1,64.4C144.5,58.2 161.7,58.2 177,64.4C178.6,64.9 180.5,63.1 181.7,61.6C182.8,61.7 183.8,61.2 184.5,60.3C185.1,59.4 185.1,58.3 184.6,57.4C185.2,56.5 185.9,55.6 186.7,54.9C187.3,54.3 187.7,53.5 187.6,52.7C187.6,51.1 186.3,49.7 184.7,49.7L184.3,49.7C184.2,49.6 184.2,49.5 184.2,49.5C185.4,48.9 185.9,47.3 185.2,46.1C184.8,45.3 183.9,44.8 183,44.8C182.5,44.8 182.1,44.9 181.7,45.2C181.6,45.1 181.5,45 181.5,44.9C181.9,44.5 182.1,44 182.1,43.5C182.2,42.4 181.4,41.4 180.3,41.4C179.5,41.3 178.8,41.7 178.4,42.4C178.3,42.3 178.2,42.2 178,42.2C178.2,41.9 178.4,41.5 178.4,41.1C178.4,40.1 177.5,39.2 176.5,39.2C175.7,39.2 175,39.7 174.8,40.5C174.6,40.4 174.4,40.3 174.2,40.3C174.3,40 174.4,39.7 174.4,39.4C174.4,38.5 173.7,37.7 172.8,37.7C172,37.7 171.3,38.3 171.1,39.1C171,39.1 170.8,39.1 170.7,39C170.4,38 169.5,37.3 168.4,37.3C168.2,37.3 167.9,37.3 167.7,37.4L167.5,37.2L167.5,37.1C167.5,36 166.6,35.1 165.5,35.1C165.1,35.1 164.7,35.2 164.4,35.4C164.3,35.4 164.2,35.4 164.2,35.3C164.2,34.3 163.4,33.5 162.4,33.5C161.7,33.5 161.1,33.9 160.8,34.5C160.7,34.4 160.5,34.4 160.3,34.4L160.3,34C160.4,33.1 159.8,32.3 158.9,32.2C158,32.1 157.2,32.7 157.1,33.6L156.6,33.6C156.8,33.1 156.9,32.6 156.9,32.1C156.9,30.6 156.1,29.3 154.8,28.6C154.4,28.4 154.1,28.3 153.7,28.2L153.7,25.2L155.4,25.2C155.5,25 155.6,24.7 155.6,24.5C155.6,24.3 155.6,24 155.4,23.8L153.7,23.8L153.7,22.2C153.3,22 152.7,22 152.3,22.2L152.3,23.8L150.6,23.8C150.5,24 150.4,24.3 150.5,24.5C150.5,24.7 150.5,25 150.6,25.2L152.3,25.2L152.3,28.2C151.9,28.3 151.6,28.4 151.2,28.6C149.9,29.3 149.1,30.6 149.1,32.1C149.1,32.6 149.2,33.1 149.4,33.6L149,33.6C148.8,32.7 147.9,32.2 147,32.4C146.3,32.6 145.8,33.2 145.8,34L145.8,34.1C145.6,34.1 145.5,34.1 145.3,34.2C145,33.6 144.4,33.3 143.7,33.2C142.7,33.2 141.9,34 141.9,35C141.8,35.1 141.7,35.1 141.7,35.1C141.4,34.9 141,34.8 140.6,34.8C139.5,34.8 138.6,35.7 138.6,36.8L138.6,36.9L138.4,37.1C138.2,37 137.9,37 137.7,37C136.6,37 135.7,37.7 135.4,38.7C135.3,38.7 135.2,38.8 135.1,38.8C134.9,38 134.2,37.4 133.4,37.4C132.5,37.4 131.7,38.2 131.7,39.1C131.7,39.4 131.8,39.7 131.9,40C131.7,40.1 131.5,40.2 131.3,40.2C131.1,39.4 130.4,38.9 129.6,38.9C128.6,38.9 127.7,39.8 127.7,40.8C127.7,41.2 127.8,41.6 128.1,41.9C127.9,42 127.9,42.1 127.7,42.1C127.1,41.2 125.9,40.8 125,41.4C124.3,41.8 124,42.5 124,43.3C124,43.8 124.2,44.4 124.6,44.7C124.5,44.8 124.5,44.9 124.4,45C124,44.7 123.6,44.6 123.1,44.6C121.7,44.6 120.6,45.7 120.6,47.1C120.6,48 121.1,48.9 121.9,49.3C121.9,49.4 121.9,49.5 121.8,49.5L121.5,49.5C119.8,49.5 118.5,50.8 118.5,52.5C118.5,53.3 118.9,54.2 119.5,54.7C120.2,55.7 120.9,56.6 121.4,57.5ZM124,60.5C123,60.5 122.2,59.7 122.2,58.7C122.2,58.3 122.3,58 122.5,57.7C122.8,57.2 123.4,56.9 124,56.9C124.6,56.9 125.2,57.2 125.6,57.7C125.8,58 125.9,58.3 125.9,58.7C125.8,59.7 125,60.5 124,60.5ZM153.1,54.5C152.1,54.5 151.3,53.7 151.3,52.7C151.3,51.7 152.1,50.9 153.1,50.9C154.1,50.9 154.9,51.7 154.9,52.7C154.9,53.7 154.1,54.5 153.1,54.5ZM153.1,40.3C154.1,40.3 154.9,41.1 154.9,42L154.9,42.1C154.9,43.1 154.1,43.9 153.1,43.9C152.1,43.9 151.3,43.1 151.3,42.1C151.2,41.2 152,40.4 153.1,40.3C153,40.3 153,40.3 153.1,40.3ZM151.6,38.3C151.6,37.5 152.2,36.9 153,36.9C153.8,36.9 154.4,37.5 154.4,38.3C154.4,39.1 153.8,39.7 153,39.7C152.3,39.7 151.6,39.1 151.6,38.3ZM153.1,44.7C154.3,44.7 155.3,45.6 155.3,46.8L155.3,46.9C155.3,47.5 155.1,48 154.7,48.4C154.2,48 153.6,47.8 153,47.9C152.4,47.9 151.8,48.1 151.3,48.4C150.9,48 150.7,47.5 150.7,46.9C150.8,45.6 151.8,44.7 153.1,44.7C153,44.7 153,44.7 153.1,44.7ZM182.1,60.5C181.1,60.6 180.3,59.8 180.2,58.8C180.2,58.3 180.4,57.8 180.8,57.4C181.2,57 181.6,56.8 182.1,56.8C182.9,56.8 183.5,57.3 183.8,58C183.9,58.2 183.9,58.4 183.9,58.6C183.9,59.7 183.1,60.5 182.1,60.5ZM184.8,50.7C185.9,50.7 186.8,51.6 186.8,52.7C186.7,53.5 186.2,54.3 185.5,54.7C185,54.1 184.2,53.7 183.4,53.7L183.1,53.7C182.9,53.4 182.8,53.1 182.8,52.7C182.8,51.6 183.6,50.7 184.7,50.6C184.7,50.7 184.8,50.7 184.8,50.7ZM183.2,45.7C184,45.7 184.7,46.3 184.7,47.1L184.7,47.2C184.7,48 184,48.7 183.2,48.7C182.4,48.7 181.7,48 181.7,47.2C181.7,46.4 182.4,45.8 183.2,45.7ZM180.3,42.3C180.9,42.2 181.4,42.7 181.5,43.3C181.6,43.9 181.1,44.4 180.5,44.5L180.3,44.5C179.7,44.4 179.3,43.9 179.3,43.3C179.3,42.8 179.7,42.4 180.3,42.3ZM176.7,40C177.2,40 177.6,40.4 177.6,40.9C177.6,41.4 177.2,41.8 176.7,41.8C176.2,41.8 175.8,41.4 175.8,40.9C175.8,40.4 176.2,40 176.7,40ZM172.9,38.5C173.3,38.5 173.6,38.8 173.6,39.2C173.6,39.6 173.3,39.9 172.9,39.9C172.5,39.9 172.2,39.6 172.2,39.2C172.3,38.8 172.6,38.5 172.9,38.5ZM170.6,40.5C176.4,42.3 179.4,45.2 180.8,47.9C181.5,49.4 181.8,51 181.8,52.6C181.9,53.1 182,53.5 182.1,53.9C181.3,54.2 180.8,54.9 180.6,55.7L180.4,55.5C179.2,54.5 177.4,54.6 176.4,55.8C175.7,56.7 175.5,57.9 176,58.9C176.7,60.3 178.3,60.9 179.7,60.3C179.8,60.5 180,60.7 180.2,60.8C179.5,62.1 177.9,62.7 176.6,62.1C175.3,61.6 174.3,60.5 173.9,59.2C172.8,60.1 171.4,60.5 170,60.2C168.5,59.9 167.5,58.4 167.8,56.9C167.9,56.6 167.9,56.3 168,55.9C168.2,57 169,57.9 170.1,58.1C171.6,58.4 173.1,57.4 173.4,55.9C173.7,54.4 172.7,53 171.2,52.7C171,52.6 170.8,52.7 170.6,52.7L170.8,52.4L170.8,51.5C172.2,51.1 173.1,49.9 173.2,48.4C173.2,47.2 172.6,46.1 171.6,45.6C172.4,45.1 173,44.3 172.9,43.3C172.9,41.9 171.9,40.8 170.5,40.6C170.6,40.6 170.6,40.6 170.6,40.5ZM168.6,49.3C168.4,49.2 168.1,49.2 167.9,49.2C167.8,49 167.8,48.7 167.7,48.5C167.7,47.3 168.7,46.3 169.9,46.3L170,46.3C171.2,46.3 172.2,47.2 172.2,48.4L172.2,48.5C172.2,49.5 171.5,50.4 170.5,50.6C170.1,50 169.5,49.5 168.6,49.3ZM171.9,43.4C171.8,44.3 171,45 170.1,45C169.3,44.9 168.6,44.3 168.5,43.4C168.6,42.5 169.4,41.8 170.3,41.8C171.2,41.9 171.9,42.6 171.9,43.4ZM168.6,38.1C169.3,38.1 169.9,38.7 169.9,39.4C169.9,40.1 169.3,40.7 168.6,40.7C167.9,40.7 167.3,40.1 167.3,39.4C167.3,38.7 167.8,38.1 168.5,38.1C168.5,38 168.5,38 168.6,38.1ZM167.6,52.3C168.6,52.3 169.4,53.1 169.4,54.1C169.4,55.1 168.6,55.9 167.6,55.9C166.6,55.9 165.8,55.1 165.8,54.1C165.8,53.1 166.6,52.3 167.6,52.3ZM165.6,35.8C166.2,35.8 166.6,36.2 166.6,36.8C166.6,37.4 166.2,37.8 165.6,37.8C165,37.8 164.6,37.4 164.6,36.8C164.6,36.2 165,35.8 165.6,35.8ZM162.4,34.3C162.8,34.3 163.2,34.6 163.2,35.1C163.2,35.5 162.8,35.9 162.4,35.9C162,35.9 161.6,35.6 161.6,35.1C161.6,34.6 161.9,34.3 162.4,34.3ZM158.7,33.4C159,33.4 159.3,33.6 159.3,33.9L159.3,34C159.3,34.3 159,34.6 158.7,34.6C158.4,34.6 158.1,34.3 158.1,34C158.1,33.7 158.3,33.4 158.7,33.4ZM165.9,49.2L166.3,49.9C165.8,50.3 165.4,50.9 165.3,51.6L165.3,51.8C165.1,51.8 165,51.6 164.8,51.6C163.3,51.2 161.8,52.2 161.5,53.6C161.1,55.1 162.1,56.6 163.5,56.9C163.6,56.9 163.7,56.9 163.8,57C164.9,57.2 166,56.7 166.6,55.8C166.6,56.1 166.5,56.4 166.4,56.7C166.1,58.2 164.6,59.2 163.1,58.9C161.7,58.7 160.5,57.8 159.9,56.5C159.1,57.6 157.8,58.3 156.3,58.3C154.7,58.3 153.5,57 153.5,55.5C153.5,55.2 153.5,54.9 153.6,54.6C154,55.6 155,56.3 156.1,56.3C157.7,56.3 158.9,55.1 159,53.5C159,52 157.8,50.7 156.2,50.7L156.1,50.7C155.9,50.7 155.8,50.7 155.6,50.8C155.6,50.7 155.6,50.6 155.7,50.5C155.7,50.2 155.6,50 155.5,49.7L156.5,49.1C156.5,49.1 156.3,39.7 154.6,35.5C154.7,35.5 154.8,35.5 154.8,35.4C168.8,36.2 167.6,45.8 165.9,49.2ZM155.9,31.8C155.9,31.9 156,32 156,32C156,32.5 155.8,33.1 155.5,33.5L154.6,33.5C154.6,33.3 154.7,33.3 154.7,33.1C154.6,32.5 154.3,32 153.8,31.8L155.9,31.8ZM153.8,29.3C154.6,29.5 155.3,30.1 155.7,30.8L153.8,30.8L153.8,29.3ZM153.1,32.5C153.4,32.5 153.7,32.8 153.7,33.1C153.7,33.4 153.4,33.7 153.1,33.7C152.8,33.7 152.5,33.4 152.5,33.1C152.4,32.8 152.7,32.6 153.1,32.5ZM153.1,34.4C153.6,34.4 154,34.9 154,35.4C154,35.9 153.5,36.3 153,36.3C152.5,36.3 152.1,35.9 152.1,35.4C152.1,34.9 152.4,34.4 152.9,34.4L153.1,34.4ZM152.3,29.3L152.3,30.8L150.4,30.8C150.8,30.1 151.5,29.5 152.3,29.3ZM150.2,31.8L152.2,31.8C151.8,32.1 151.5,32.6 151.4,33.1C151.4,33.3 151.5,33.3 151.5,33.5L150.6,33.5C150.3,33.1 150.1,32.5 150.1,32C150.1,32 150.2,31.9 150.2,31.8ZM147.4,33.4C147.7,33.4 148,33.7 148,34C148,34.3 147.7,34.6 147.4,34.6C147.1,34.6 146.8,34.3 146.8,34C146.8,33.7 147,33.4 147.3,33.4L147.4,33.4ZM143.7,34.3C144.1,34.3 144.5,34.6 144.6,35C144.6,35.4 144.2,35.8 143.7,35.8C143.3,35.8 142.9,35.4 142.9,35C142.9,34.6 143.2,34.3 143.7,34.3ZM140.5,35.8C141.1,35.8 141.5,36.2 141.5,36.8C141.5,37.4 141.1,37.8 140.5,37.8C139.9,37.8 139.5,37.4 139.5,36.8C139.5,36.2 140,35.8 140.5,35.8ZM151.1,35.5C151.1,35.6 151.2,35.6 151.3,35.6C149.6,39.9 149.4,49.2 149.4,49.2L150.4,49.8C150.3,50.1 150.3,50.3 150.2,50.6C150.2,50.7 150.3,50.8 150.3,50.9C150.2,50.8 150,50.8 149.8,50.8C148.3,50.8 147,52 147,53.5L147,53.6C147,55.1 148.3,56.4 149.8,56.4C150.9,56.4 151.9,55.7 152.3,54.6C152.4,54.9 152.4,55.2 152.4,55.5C152.4,57.1 151.1,58.3 149.6,58.3C148.2,58.3 146.9,57.6 146.1,56.5C145.5,57.8 144.3,58.7 142.9,58.9C141.4,59.2 139.9,58.2 139.6,56.7C139.5,56.4 139.5,56.1 139.4,55.8C140,56.7 141.1,57.2 142.2,57C143.7,56.8 144.8,55.4 144.6,53.9C144.4,52.4 143,51.3 141.5,51.5C141.4,51.5 141.3,51.5 141.2,51.6C141.1,51.6 140.9,51.8 140.7,51.8L140.7,51.6C140.6,51 140.2,50.4 139.7,49.9L140.1,49.2C138.5,45.8 137.4,36.2 151.1,35.5ZM140.3,54.1C140.3,55.1 139.5,55.9 138.5,55.9C137.5,56 136.6,55.2 136.6,54.2C136.5,53.2 137.3,52.3 138.3,52.3L138.6,52.3C139.5,52.3 140.3,53.1 140.3,54.1ZM135.6,50.7C134.4,50.4 133.7,49.3 133.9,48.1C134.2,46.9 135.3,46.2 136.5,46.4C137.5,46.6 138.2,47.5 138.2,48.6C138.2,48.8 138.1,49.1 138,49.3C137.8,49.3 137.5,49.3 137.3,49.4C136.7,49.5 136,50 135.6,50.7ZM137.5,38.1C138.2,38.1 138.8,38.6 138.8,39.3L138.8,39.4C138.8,40.1 138.2,40.7 137.5,40.7C136.8,40.7 136.2,40.1 136.2,39.4C136.2,38.7 136.8,38.1 137.5,38.1ZM135.9,41.8C136.8,41.8 137.5,42.5 137.6,43.5C137.5,44.4 136.7,45.1 135.8,45.1C135,45 134.3,44.4 134.2,43.5C134.2,42.5 134.9,41.7 135.9,41.8ZM133.2,38.5C133.6,38.5 133.9,38.8 133.9,39.2C133.9,39.6 133.6,39.9 133.2,39.9C132.9,39.9 132.6,39.6 132.6,39.3C132.5,38.8 132.8,38.5 133.2,38.5C133.1,38.5 133.2,38.5 133.2,38.5ZM129.4,40C129.9,40 130.3,40.4 130.3,40.9C130.3,41.4 129.9,41.8 129.4,41.8C128.9,41.8 128.5,41.4 128.5,40.9C128.5,40.4 128.9,40 129.4,40ZM135.5,40.5C135.5,40.6 135.6,40.6 135.6,40.7C134.2,40.9 133.2,42 133.2,43.4C133.2,44.4 133.7,45.2 134.5,45.7C133.5,46.3 132.8,47.4 132.9,48.5C132.9,49.9 133.9,51.2 135.3,51.6L135.3,52.6L135.5,52.9C135.3,52.9 135.1,52.8 134.9,52.9C133.4,53.2 132.4,54.6 132.7,56.1C133,57.6 134.5,58.6 136,58.3C137.1,58.1 138,57.2 138.2,56.1C138.2,56.3 138.4,56.9 138.4,57.1C138.7,58.6 137.7,60.1 136.2,60.4C134.8,60.7 133.3,60.3 132.3,59.4C131.9,60.7 130.9,61.8 129.6,62.3C128.2,62.9 126.6,62.2 126,60.9C126.2,60.8 126.4,60.6 126.5,60.4C127.9,61 129.6,60.4 130.2,59C130.9,57.6 130.3,55.9 128.9,55.2C127.9,54.7 126.7,54.9 125.8,55.6L125.6,55.8C125.4,55 124.9,54.3 124.1,54C124.2,53.5 124.3,53.1 124.4,52.6C124.3,51 124.7,49.3 125.4,47.9C126.7,45.2 129.7,42.3 135.5,40.5ZM125.9,42.3C126.5,42.3 127,42.8 126.9,43.4C126.8,44 126.4,44.5 125.8,44.4C125.2,44.4 124.8,43.9 124.8,43.4C124.7,42.8 125.2,42.3 125.9,42.3C125.8,42.3 125.8,42.3 125.9,42.3ZM121.4,47.3C121.4,46.5 122,45.8 122.8,45.8L122.9,45.8C123.7,45.8 124.4,46.5 124.4,47.3C124.4,48.1 123.7,48.8 122.9,48.8C122.1,48.8 121.4,48.1 121.4,47.3ZM121.4,50.8C122.5,50.8 123.4,51.7 123.4,52.8C123.4,53.1 123.3,53.5 123.1,53.8L122.9,53.8C122.1,53.8 121.3,54.2 120.8,54.8C120.1,54.4 119.6,53.6 119.5,52.8C119.4,51.6 120.3,50.7 121.4,50.8C121.4,50.7 121.4,50.7 121.4,50.8Z" style="fill:white;fill-rule:nonzero;"/>
    </g>
    <g transform="matrix(1.67277,0,0,1.67277,-105.63,-29.0517)">
        <path d="M173.4,72.1C173.7,72.1 173.9,71.9 174,71.7C174.1,71.4 173.9,71 173.6,70.8C167.1,68.4 160.2,67.2 153.3,67.2L152.8,67.2C145.9,67.2 139,68.4 132.5,70.8C132.2,71 132,71.3 132.1,71.7C132.3,72 132.6,72.2 133,72.1C139.4,69.7 146.1,68.6 152.9,68.6L153.4,68.6C160.2,68.6 166.9,69.7 173.3,72.1L173.4,72.1Z" style="fill:white;fill-rule:nonzero;"/>
    </g>
    <g transform="matrix(1.67277,0,0,1.67277,-105.63,-29.0517)">
        <path d="M177.3,68.3L176.4,65.8L176.2,65.4L174.9,65.6C168.3,63 161.2,61.7 154.1,61.6L153,60.9L151.8,61.6C144.7,61.7 137.7,63.1 131.1,65.6L129.8,65.4L129.6,65.8L128.7,68.3L131.5,69.8L132.4,68.8C138.6,66.5 145.1,65.2 151.6,65.1L153,65.9L154.4,65.1C161,65.3 167.5,66.5 173.6,68.8L174.5,69.8L177.3,68.3ZM131.3,68.6C130.9,68.4 130.4,68.2 130,67.9C130.2,67.5 130.4,67 130.5,66.6L132.7,67C132.2,67.5 131.6,68.3 131.3,68.6ZM142.8,65.3L140.6,65.8C140,65.9 139.5,65.5 139.3,64.9C139.2,64.3 139.5,63.7 140.1,63.6L142.2,63.1C142.8,63 143.4,63.4 143.5,64C143.7,64.6 143.3,65.2 142.8,65.3ZM153.1,64.7L150.8,63.4L153.1,62.1L155.4,63.4L153.1,64.7ZM166.9,64.9C166.8,65.5 166.2,65.9 165.6,65.8L163.4,65.3C162.8,65.2 162.4,64.6 162.5,64C162.7,63.4 163.2,63.1 163.8,63.1L165.9,63.6C166.6,63.7 167,64.3 166.9,64.9ZM173.4,66.9L175.6,66.5C175.7,67 175.9,67.4 176.1,67.8C175.7,68.1 175.3,68.3 174.8,68.5C174.5,68.3 173.9,67.5 173.4,66.9Z" style="fill:white;fill-rule:nonzero;"/>
    </g>
</svg>
